M48
;GenerationSoftware,Autodesk,EAGLE,9.3.2*%
;CreationDate,2019-04-23T03:19:53Z*%
FMAT,2
ICI,OFF
METRIC,TZ,000.000
T5C0.350
T4C0.800
T3C0.813
T2C1.000
T1C1.016
%
G90
M71
T1
X2540Y42380
X97460Y60160
X97460Y57620
X97460Y55080
X97460Y52540
X97460Y50000
X97460Y47460
X97460Y44920
X97460Y42380
X33020Y97790
X27940Y97790
X53340Y97790
X2540Y47460
X48260Y97790
X2540Y44920
X2540Y50000
X2540Y52540
X2540Y55080
X2540Y57620
X2540Y60160
X2540Y97790
X2540Y95250
X2540Y92710
X2540Y90170
X2540Y87630
X39370Y45720
X39370Y43180
X39370Y40640
T2
X73850Y2540
X65850Y2540
T3
X2540Y2540
X2540Y5080
X13970Y15240
X24130Y15240
X10160Y12700
X10160Y2540
X40640Y78740
X30480Y78740
X11430Y96520
X21590Y96520
X46990Y63500
X46990Y60960
X46990Y58420
X46990Y55880
X46990Y53340
X46990Y50800
X46990Y48260
X46990Y45720
X46990Y43180
X46990Y40640
X46990Y38100
X46990Y35560
X46990Y33020
X46990Y30480
X54610Y30480
X54610Y33020
X54610Y35560
X54610Y38100
X54610Y40640
X54610Y43180
X54610Y45720
X54610Y48260
X54610Y50800
X54610Y53340
X54610Y55880
X54610Y58420
X54610Y60960
X54610Y63500
X50800Y15240
X48895Y13970
X50800Y12700
X36830Y6350
X59690Y63500
X62230Y63500
X41910Y30480
X41910Y33020
X59690Y11430
X59690Y8890
X33020Y17780
X33020Y20320
X62230Y48260
X67310Y48260
X36830Y11430
X16510Y2540
X16510Y5080
T4
X71850Y2540
X69850Y2540
X67850Y2540
T5
X19050Y35560
X30480Y71120
X52070Y71120
X54610Y15240
X58420Y48260
X91440Y10160
X74930Y20320
X46990Y20320
X38100Y62230
X38100Y55880
X24130Y62230
X33020Y53340
X22860Y52070
X6350Y2540
X6350Y21590
X19050Y21590
M30