G04 EAGLE Gerber RS-274X export*
G75*
%MOMM*%
%FSLAX34Y34*%
%LPD*%
%INTop Layer*%
%IPPOS*%
%AMOC8*
5,1,8,0,0,1.08239X$1,22.5*%
G01*
%ADD10C,0.000000*%
%ADD11P,1.429621X8X22.500000*%
%ADD12P,1.429621X8X112.500000*%
%ADD13P,1.429621X8X292.500000*%
%ADD14C,1.320800*%
%ADD15P,1.429621X8X202.500000*%
%ADD16C,1.320800*%
%ADD17C,1.308000*%
%ADD18C,1.508000*%
%ADD19C,1.879600*%
%ADD20C,0.654800*%
%ADD21C,0.406400*%
%ADD22C,0.152400*%


D10*
X0Y0D02*
X1000000Y0D01*
X1000000Y1000000D01*
X0Y1000000D01*
X0Y0D01*
D11*
X596900Y635000D03*
X622300Y635000D03*
D12*
X419100Y304800D03*
X419100Y330200D03*
D13*
X596900Y114300D03*
X596900Y88900D03*
D12*
X330200Y177800D03*
X330200Y203200D03*
D14*
X622300Y482600D03*
D11*
X673100Y482600D03*
D14*
X368300Y63500D03*
D12*
X368300Y114300D03*
X165100Y25400D03*
X165100Y50800D03*
X25400Y25400D03*
X25400Y50800D03*
D11*
X139700Y152400D03*
X241300Y152400D03*
D13*
X101600Y127000D03*
X101600Y25400D03*
D15*
X406400Y787400D03*
X304800Y787400D03*
D11*
X114300Y965200D03*
X215900Y965200D03*
D16*
X463296Y635000D02*
X476504Y635000D01*
X476504Y609600D02*
X463296Y609600D01*
X463296Y584200D02*
X476504Y584200D01*
X476504Y558800D02*
X463296Y558800D01*
X463296Y533400D02*
X476504Y533400D01*
X476504Y508000D02*
X463296Y508000D01*
X463296Y482600D02*
X476504Y482600D01*
X476504Y457200D02*
X463296Y457200D01*
X463296Y431800D02*
X476504Y431800D01*
X476504Y406400D02*
X463296Y406400D01*
X463296Y381000D02*
X476504Y381000D01*
X476504Y355600D02*
X463296Y355600D01*
X463296Y330200D02*
X476504Y330200D01*
X476504Y304800D02*
X463296Y304800D01*
X539496Y304800D02*
X552704Y304800D01*
X552704Y330200D02*
X539496Y330200D01*
X539496Y355600D02*
X552704Y355600D01*
X552704Y381000D02*
X539496Y381000D01*
X539496Y406400D02*
X552704Y406400D01*
X552704Y431800D02*
X539496Y431800D01*
X539496Y457200D02*
X552704Y457200D01*
X552704Y482600D02*
X539496Y482600D01*
X539496Y508000D02*
X552704Y508000D01*
X552704Y533400D02*
X539496Y533400D01*
X539496Y558800D02*
X552704Y558800D01*
X552704Y584200D02*
X539496Y584200D01*
X539496Y609600D02*
X552704Y609600D01*
X552704Y635000D02*
X539496Y635000D01*
D17*
X718500Y25400D03*
X698500Y25400D03*
X678500Y25400D03*
D18*
X738500Y25400D03*
X658500Y25400D03*
D12*
X508000Y152400D03*
X488950Y139700D03*
X508000Y127000D03*
D19*
X482600Y977900D03*
X533400Y977900D03*
X279400Y977900D03*
X330200Y977900D03*
X974600Y423800D03*
X974600Y449200D03*
X974600Y474600D03*
X974600Y500000D03*
X974600Y525400D03*
X974600Y550800D03*
X974600Y576200D03*
X974600Y601600D03*
X25400Y423800D03*
X25400Y449200D03*
X25400Y474600D03*
X25400Y500000D03*
X25400Y525400D03*
X25400Y550800D03*
X25400Y576200D03*
X25400Y601600D03*
X25400Y977900D03*
X25400Y952500D03*
X25400Y927100D03*
X25400Y901700D03*
X25400Y876300D03*
X393700Y457200D03*
X393700Y431800D03*
X393700Y406400D03*
D20*
X914400Y101600D03*
D21*
X698500Y101600D01*
X698500Y25400D01*
D22*
X678500Y25400D02*
X678500Y32700D01*
D21*
X596900Y114300D01*
X546100Y114300D01*
X508000Y152400D01*
X546100Y304800D02*
X830200Y304800D01*
X974600Y449200D01*
D20*
X546100Y152400D03*
D21*
X508000Y152400D01*
X241300Y127000D02*
X165100Y50800D01*
X241300Y127000D02*
X241300Y152400D01*
X101600Y25400D02*
X76200Y50800D01*
X25400Y50800D01*
X431800Y127000D02*
X508000Y127000D01*
X431800Y127000D02*
X368300Y63500D01*
X203200Y63500D01*
X165100Y25400D01*
X381000Y177800D02*
X431800Y127000D01*
X381000Y177800D02*
X330200Y177800D01*
X58800Y449200D01*
X25400Y449200D01*
X381000Y177800D02*
X419100Y215900D01*
X419100Y304800D01*
X444500Y330200D01*
X469900Y330200D01*
X508000Y368300D01*
X508000Y482600D01*
X533400Y508000D01*
X546100Y508000D01*
X520700Y533400D01*
X520700Y622300D01*
X533400Y622300D01*
X546100Y635000D01*
X596900Y635000D01*
X304800Y787400D02*
X228600Y787400D01*
X88900Y927100D02*
X50800Y927100D01*
X25400Y952500D01*
X88900Y927100D02*
X228600Y787400D01*
X520700Y711200D02*
X520700Y622300D01*
D20*
X520700Y711200D03*
X304800Y711200D03*
D21*
X304800Y787400D01*
X393700Y406400D02*
X469900Y406400D01*
X546100Y431800D02*
X622300Y431800D01*
X622300Y482600D01*
X444500Y457200D02*
X393700Y457200D01*
X444500Y457200D02*
X469900Y431800D01*
X406400Y787400D02*
X406400Y901700D01*
X482600Y977900D01*
X63500Y939800D02*
X25400Y977900D01*
X215900Y939800D02*
X254000Y901700D01*
X406400Y901700D01*
X215900Y939800D02*
X63500Y939800D01*
X406400Y787400D02*
X406400Y635000D01*
X469900Y635000D01*
X279400Y977900D02*
X127000Y977900D01*
X114300Y965200D01*
X317500Y381000D02*
X469900Y381000D01*
X317500Y381000D02*
X203200Y495300D01*
X30100Y495300D01*
X25400Y500000D01*
X215900Y355600D02*
X469900Y355600D01*
X96900Y474600D02*
X25400Y474600D01*
X96900Y474600D02*
X215900Y355600D01*
X190500Y355600D01*
D20*
X190500Y355600D03*
X190500Y215900D03*
D21*
X63500Y215900D01*
D20*
X63500Y215900D03*
X63500Y25400D03*
D21*
X25400Y25400D01*
D20*
X228600Y520700D03*
D21*
X30100Y520700D01*
X25400Y525400D01*
X317500Y508000D02*
X469900Y508000D01*
X274700Y550800D02*
X25400Y550800D01*
X274700Y550800D02*
X317500Y508000D01*
X330200Y533400D02*
X469900Y533400D01*
D20*
X330200Y533400D03*
X241300Y622300D03*
D21*
X152400Y622300D01*
X25400Y749300D01*
X25400Y876300D01*
X381000Y558800D02*
X469900Y558800D01*
D20*
X381000Y558800D03*
X381000Y622300D03*
D21*
X342900Y622300D01*
X63500Y901700D01*
X25400Y901700D01*
X25400Y576200D02*
X461900Y576200D01*
X469900Y584200D01*
X461900Y601600D02*
X25400Y601600D01*
X461900Y601600D02*
X469900Y609600D01*
X546100Y584200D02*
X558800Y596900D01*
X977900Y596900D01*
X974600Y600200D01*
X974600Y601600D01*
X563500Y576200D02*
X546100Y558800D01*
X563500Y576200D02*
X974600Y576200D01*
X957200Y533400D02*
X546100Y533400D01*
X957200Y533400D02*
X974600Y550800D01*
X787400Y355600D02*
X546100Y355600D01*
X787400Y355600D02*
X931800Y500000D01*
X974600Y500000D01*
X812800Y330200D02*
X546100Y330200D01*
X957200Y474600D02*
X974600Y474600D01*
X957200Y474600D02*
X812800Y330200D01*
X762000Y381000D02*
X546100Y381000D01*
X969900Y520700D02*
X974600Y525400D01*
X901700Y520700D02*
X762000Y381000D01*
X901700Y520700D02*
X969900Y520700D01*
X584200Y482600D02*
X546100Y482600D01*
D20*
X584200Y482600D03*
X469900Y203200D03*
D21*
X749300Y203200D01*
D20*
X749300Y203200D03*
M02*
