G04 EAGLE Gerber RS-274X export*
G75*
%MOMM*%
%FSLAX34Y34*%
%LPD*%
%INSilk bottom*%
%IPPOS*%
%AMOC8*
5,1,8,0,0,1.08239X$1,22.5*%
G01*
%ADD10C,0.000000*%
%ADD11C,0.152400*%
%ADD12R,33.832800X0.050800*%
%ADD13R,10.515600X0.050800*%
%ADD14R,22.301200X0.050800*%
%ADD15R,22.250400X0.050800*%
%ADD16R,10.566400X0.050800*%
%ADD17R,22.199600X0.050800*%
%ADD18R,10.617200X0.050800*%
%ADD19R,22.148800X0.050800*%
%ADD20R,10.668000X0.050800*%
%ADD21R,22.098000X0.050800*%
%ADD22R,10.718800X0.050800*%
%ADD23R,4.775200X0.050800*%
%ADD24R,2.641600X0.050800*%
%ADD25R,1.422400X0.050800*%
%ADD26R,0.762000X0.050800*%
%ADD27R,5.435600X0.050800*%
%ADD28R,8.483600X0.050800*%
%ADD29R,4.826000X0.050800*%
%ADD30R,4.521200X0.050800*%
%ADD31R,2.235200X0.050800*%
%ADD32R,1.168400X0.050800*%
%ADD33R,0.558800X0.050800*%
%ADD34R,4.978400X0.050800*%
%ADD35R,8.077200X0.050800*%
%ADD36R,4.622800X0.050800*%
%ADD37R,4.419600X0.050800*%
%ADD38R,1.981200X0.050800*%
%ADD39R,1.066800X0.050800*%
%ADD40R,0.406400X0.050800*%
%ADD41R,1.270000X0.050800*%
%ADD42R,2.489200X0.050800*%
%ADD43R,0.965200X0.050800*%
%ADD44R,1.574800X0.050800*%
%ADD45R,4.470400X0.050800*%
%ADD46R,4.318000X0.050800*%
%ADD47R,1.778000X0.050800*%
%ADD48R,0.304800X0.050800*%
%ADD49R,2.336800X0.050800*%
%ADD50R,0.863600X0.050800*%
%ADD51R,1.117600X0.050800*%
%ADD52R,4.368800X0.050800*%
%ADD53R,4.216400X0.050800*%
%ADD54R,0.254000X0.050800*%
%ADD55R,4.267200X0.050800*%
%ADD56R,4.114800X0.050800*%
%ADD57R,0.152400X0.050800*%
%ADD58R,1.016000X0.050800*%
%ADD59R,2.133600X0.050800*%
%ADD60R,0.711200X0.050800*%
%ADD61R,1.219200X0.050800*%
%ADD62R,4.064000X0.050800*%
%ADD63R,0.050800X0.050800*%
%ADD64R,0.914400X0.050800*%
%ADD65R,2.032000X0.050800*%
%ADD66R,0.609600X0.050800*%
%ADD67R,3.962400X0.050800*%
%ADD68R,1.930400X0.050800*%
%ADD69R,3.911600X0.050800*%
%ADD70R,0.660400X0.050800*%
%ADD71R,1.879600X0.050800*%
%ADD72R,4.013200X0.050800*%
%ADD73R,3.860800X0.050800*%
%ADD74R,1.828800X0.050800*%
%ADD75R,0.457200X0.050800*%
%ADD76R,3.810000X0.050800*%
%ADD77R,3.759200X0.050800*%
%ADD78R,0.508000X0.050800*%
%ADD79R,1.727200X0.050800*%
%ADD80R,0.355600X0.050800*%
%ADD81R,0.812800X0.050800*%
%ADD82R,3.708400X0.050800*%
%ADD83R,1.676400X0.050800*%
%ADD84R,3.657600X0.050800*%
%ADD85R,3.606800X0.050800*%
%ADD86R,0.203200X0.050800*%
%ADD87R,1.524000X0.050800*%
%ADD88R,3.556000X0.050800*%
%ADD89R,3.505200X0.050800*%
%ADD90R,1.473200X0.050800*%
%ADD91R,0.101600X0.050800*%
%ADD92R,3.454400X0.050800*%
%ADD93R,1.320800X0.050800*%
%ADD94R,3.403600X0.050800*%
%ADD95R,3.352800X0.050800*%
%ADD96R,1.371600X0.050800*%
%ADD97R,3.302000X0.050800*%
%ADD98R,1.625600X0.050800*%
%ADD99R,4.165600X0.050800*%
%ADD100R,2.743200X0.050800*%
%ADD101R,6.096000X0.050800*%
%ADD102R,6.045200X0.050800*%
%ADD103R,5.994400X0.050800*%
%ADD104R,5.943600X0.050800*%
%ADD105R,5.892800X0.050800*%
%ADD106R,5.791200X0.050800*%
%ADD107R,5.740400X0.050800*%
%ADD108R,5.638800X0.050800*%
%ADD109R,5.588000X0.050800*%
%ADD110R,5.486400X0.050800*%
%ADD111R,5.384800X0.050800*%
%ADD112R,5.334000X0.050800*%
%ADD113R,5.181600X0.050800*%
%ADD114R,5.130800X0.050800*%
%ADD115R,5.029200X0.050800*%
%ADD116R,4.927600X0.050800*%
%ADD117R,4.876800X0.050800*%
%ADD118R,4.724400X0.050800*%
%ADD119R,4.673600X0.050800*%
%ADD120R,4.572000X0.050800*%
%ADD121R,2.184400X0.050800*%
%ADD122R,2.286000X0.050800*%
%ADD123R,7.264400X0.050800*%
%ADD124R,2.844800X0.050800*%
%ADD125R,2.692400X0.050800*%
%ADD126R,7.467600X0.050800*%
%ADD127R,3.098800X0.050800*%
%ADD128R,2.997200X0.050800*%
%ADD129R,2.438400X0.050800*%
%ADD130R,7.772400X0.050800*%
%ADD131R,3.048000X0.050800*%
%ADD132R,28.651200X0.050800*%
%ADD133R,28.702000X0.050800*%
%ADD134R,27.025600X0.050800*%
%ADD135R,26.974800X0.050800*%
%ADD136R,26.924000X0.050800*%
%ADD137R,26.873200X0.050800*%
%ADD138R,26.771600X0.050800*%
%ADD139R,26.720800X0.050800*%
%ADD140R,26.670000X0.050800*%
%ADD141R,26.619200X0.050800*%
%ADD142R,26.568400X0.050800*%
%ADD143R,26.466800X0.050800*%
%ADD144R,26.416000X0.050800*%
%ADD145R,26.365200X0.050800*%
%ADD146R,26.314400X0.050800*%
%ADD147R,26.263600X0.050800*%
%ADD148R,26.517600X0.050800*%
%ADD149R,26.822400X0.050800*%
%ADD150R,27.127200X0.050800*%
%ADD151R,27.228800X0.050800*%
%ADD152R,27.330400X0.050800*%
%ADD153R,27.584400X0.050800*%
%ADD154C,0.203200*%


D10*
X0Y0D02*
X1000000Y0D01*
X1000000Y1000000D01*
X0Y1000000D01*
X0Y0D01*
D11*
X934522Y606693D02*
X939038Y606693D01*
X934522Y606694D02*
X934389Y606692D01*
X934257Y606686D01*
X934125Y606676D01*
X933993Y606663D01*
X933861Y606645D01*
X933731Y606624D01*
X933600Y606599D01*
X933471Y606570D01*
X933343Y606537D01*
X933215Y606501D01*
X933089Y606461D01*
X932964Y606417D01*
X932840Y606369D01*
X932718Y606318D01*
X932597Y606263D01*
X932478Y606205D01*
X932360Y606143D01*
X932245Y606078D01*
X932131Y606009D01*
X932020Y605938D01*
X931911Y605862D01*
X931804Y605784D01*
X931699Y605703D01*
X931597Y605618D01*
X931497Y605531D01*
X931400Y605441D01*
X931305Y605348D01*
X931214Y605252D01*
X931125Y605154D01*
X931039Y605053D01*
X930956Y604949D01*
X930876Y604843D01*
X930800Y604735D01*
X930726Y604625D01*
X930656Y604512D01*
X930589Y604398D01*
X930526Y604281D01*
X930466Y604163D01*
X930409Y604043D01*
X930356Y603921D01*
X930307Y603798D01*
X930261Y603674D01*
X930219Y603548D01*
X930181Y603421D01*
X930146Y603293D01*
X930115Y603164D01*
X930088Y603035D01*
X930065Y602904D01*
X930045Y602773D01*
X930030Y602641D01*
X930018Y602509D01*
X930010Y602377D01*
X930006Y602244D01*
X930006Y602112D01*
X930010Y601979D01*
X930018Y601847D01*
X930030Y601715D01*
X930045Y601583D01*
X930065Y601452D01*
X930088Y601321D01*
X930115Y601192D01*
X930146Y601063D01*
X930181Y600935D01*
X930219Y600808D01*
X930261Y600682D01*
X930307Y600558D01*
X930356Y600435D01*
X930409Y600313D01*
X930466Y600193D01*
X930526Y600075D01*
X930589Y599958D01*
X930656Y599844D01*
X930726Y599731D01*
X930800Y599621D01*
X930876Y599513D01*
X930956Y599407D01*
X931039Y599303D01*
X931125Y599202D01*
X931214Y599104D01*
X931305Y599008D01*
X931400Y598915D01*
X931497Y598825D01*
X931597Y598738D01*
X931699Y598653D01*
X931804Y598572D01*
X931911Y598494D01*
X932020Y598418D01*
X932131Y598347D01*
X932245Y598278D01*
X932360Y598213D01*
X932478Y598151D01*
X932597Y598093D01*
X932718Y598038D01*
X932840Y597987D01*
X932964Y597939D01*
X933089Y597895D01*
X933215Y597855D01*
X933343Y597819D01*
X933471Y597786D01*
X933600Y597757D01*
X933731Y597732D01*
X933861Y597711D01*
X933993Y597693D01*
X934125Y597680D01*
X934257Y597670D01*
X934389Y597664D01*
X934522Y597662D01*
X939038Y597662D01*
X939038Y613918D01*
X934522Y613918D01*
X934403Y613916D01*
X934283Y613910D01*
X934164Y613900D01*
X934046Y613886D01*
X933927Y613869D01*
X933810Y613847D01*
X933693Y613822D01*
X933578Y613792D01*
X933463Y613759D01*
X933349Y613722D01*
X933237Y613682D01*
X933126Y613637D01*
X933017Y613589D01*
X932909Y613538D01*
X932803Y613483D01*
X932699Y613424D01*
X932597Y613362D01*
X932497Y613297D01*
X932399Y613228D01*
X932303Y613156D01*
X932210Y613081D01*
X932120Y613004D01*
X932032Y612923D01*
X931947Y612839D01*
X931865Y612752D01*
X931785Y612663D01*
X931709Y612571D01*
X931635Y612477D01*
X931565Y612380D01*
X931498Y612282D01*
X931434Y612181D01*
X931374Y612077D01*
X931317Y611972D01*
X931264Y611865D01*
X931214Y611757D01*
X931168Y611647D01*
X931126Y611535D01*
X931087Y611422D01*
X931052Y611308D01*
X931021Y611193D01*
X930993Y611076D01*
X930970Y610959D01*
X930950Y610842D01*
X930934Y610723D01*
X930922Y610604D01*
X930914Y610485D01*
X930910Y610366D01*
X930910Y610246D01*
X930914Y610127D01*
X930922Y610008D01*
X930934Y609889D01*
X930950Y609770D01*
X930970Y609653D01*
X930993Y609536D01*
X931021Y609419D01*
X931052Y609304D01*
X931087Y609190D01*
X931126Y609077D01*
X931168Y608965D01*
X931214Y608855D01*
X931264Y608747D01*
X931317Y608640D01*
X931374Y608535D01*
X931434Y608431D01*
X931498Y608330D01*
X931565Y608232D01*
X931635Y608135D01*
X931709Y608041D01*
X931785Y607949D01*
X931865Y607860D01*
X931947Y607773D01*
X932032Y607689D01*
X932120Y607608D01*
X932210Y607531D01*
X932303Y607456D01*
X932399Y607384D01*
X932497Y607315D01*
X932597Y607250D01*
X932699Y607188D01*
X932803Y607129D01*
X932909Y607074D01*
X933017Y607023D01*
X933126Y606975D01*
X933237Y606930D01*
X933349Y606890D01*
X933463Y606853D01*
X933578Y606820D01*
X933693Y606790D01*
X933810Y606765D01*
X933927Y606743D01*
X934046Y606726D01*
X934164Y606712D01*
X934283Y606702D01*
X934403Y606696D01*
X934522Y606694D01*
X924139Y610306D02*
X919623Y613918D01*
X919623Y597662D01*
X915108Y597662D02*
X924139Y597662D01*
X908508Y597662D02*
X903089Y597662D01*
X902971Y597664D01*
X902853Y597670D01*
X902735Y597679D01*
X902618Y597693D01*
X902501Y597710D01*
X902384Y597731D01*
X902269Y597756D01*
X902154Y597785D01*
X902040Y597818D01*
X901928Y597854D01*
X901817Y597894D01*
X901707Y597937D01*
X901598Y597984D01*
X901491Y598034D01*
X901386Y598089D01*
X901283Y598146D01*
X901182Y598207D01*
X901082Y598271D01*
X900985Y598338D01*
X900890Y598408D01*
X900798Y598482D01*
X900707Y598558D01*
X900620Y598638D01*
X900535Y598720D01*
X900453Y598805D01*
X900373Y598892D01*
X900297Y598983D01*
X900223Y599075D01*
X900153Y599170D01*
X900086Y599267D01*
X900022Y599367D01*
X899961Y599468D01*
X899904Y599571D01*
X899849Y599676D01*
X899799Y599783D01*
X899752Y599892D01*
X899709Y600002D01*
X899669Y600113D01*
X899633Y600225D01*
X899600Y600339D01*
X899571Y600454D01*
X899546Y600569D01*
X899525Y600686D01*
X899508Y600803D01*
X899494Y600920D01*
X899485Y601038D01*
X899479Y601156D01*
X899477Y601274D01*
X899476Y601274D02*
X899476Y603081D01*
X899477Y603081D02*
X899479Y603199D01*
X899485Y603317D01*
X899494Y603435D01*
X899508Y603552D01*
X899525Y603669D01*
X899546Y603786D01*
X899571Y603901D01*
X899600Y604016D01*
X899633Y604130D01*
X899669Y604242D01*
X899709Y604353D01*
X899752Y604463D01*
X899799Y604572D01*
X899849Y604679D01*
X899904Y604784D01*
X899961Y604887D01*
X900022Y604988D01*
X900086Y605088D01*
X900153Y605185D01*
X900223Y605280D01*
X900297Y605372D01*
X900373Y605463D01*
X900453Y605550D01*
X900535Y605635D01*
X900620Y605717D01*
X900707Y605797D01*
X900798Y605873D01*
X900890Y605947D01*
X900985Y606017D01*
X901082Y606084D01*
X901182Y606148D01*
X901283Y606209D01*
X901386Y606266D01*
X901491Y606321D01*
X901598Y606371D01*
X901707Y606418D01*
X901817Y606461D01*
X901928Y606501D01*
X902040Y606537D01*
X902154Y606570D01*
X902269Y606599D01*
X902384Y606624D01*
X902501Y606645D01*
X902618Y606662D01*
X902735Y606676D01*
X902853Y606685D01*
X902971Y606691D01*
X903089Y606693D01*
X908508Y606693D01*
X908508Y613918D01*
X899476Y613918D01*
X934522Y581293D02*
X939038Y581293D01*
X934522Y581294D02*
X934389Y581292D01*
X934257Y581286D01*
X934125Y581276D01*
X933993Y581263D01*
X933861Y581245D01*
X933731Y581224D01*
X933600Y581199D01*
X933471Y581170D01*
X933343Y581137D01*
X933215Y581101D01*
X933089Y581061D01*
X932964Y581017D01*
X932840Y580969D01*
X932718Y580918D01*
X932597Y580863D01*
X932478Y580805D01*
X932360Y580743D01*
X932245Y580678D01*
X932131Y580609D01*
X932020Y580538D01*
X931911Y580462D01*
X931804Y580384D01*
X931699Y580303D01*
X931597Y580218D01*
X931497Y580131D01*
X931400Y580041D01*
X931305Y579948D01*
X931214Y579852D01*
X931125Y579754D01*
X931039Y579653D01*
X930956Y579549D01*
X930876Y579443D01*
X930800Y579335D01*
X930726Y579225D01*
X930656Y579112D01*
X930589Y578998D01*
X930526Y578881D01*
X930466Y578763D01*
X930409Y578643D01*
X930356Y578521D01*
X930307Y578398D01*
X930261Y578274D01*
X930219Y578148D01*
X930181Y578021D01*
X930146Y577893D01*
X930115Y577764D01*
X930088Y577635D01*
X930065Y577504D01*
X930045Y577373D01*
X930030Y577241D01*
X930018Y577109D01*
X930010Y576977D01*
X930006Y576844D01*
X930006Y576712D01*
X930010Y576579D01*
X930018Y576447D01*
X930030Y576315D01*
X930045Y576183D01*
X930065Y576052D01*
X930088Y575921D01*
X930115Y575792D01*
X930146Y575663D01*
X930181Y575535D01*
X930219Y575408D01*
X930261Y575282D01*
X930307Y575158D01*
X930356Y575035D01*
X930409Y574913D01*
X930466Y574793D01*
X930526Y574675D01*
X930589Y574558D01*
X930656Y574444D01*
X930726Y574331D01*
X930800Y574221D01*
X930876Y574113D01*
X930956Y574007D01*
X931039Y573903D01*
X931125Y573802D01*
X931214Y573704D01*
X931305Y573608D01*
X931400Y573515D01*
X931497Y573425D01*
X931597Y573338D01*
X931699Y573253D01*
X931804Y573172D01*
X931911Y573094D01*
X932020Y573018D01*
X932131Y572947D01*
X932245Y572878D01*
X932360Y572813D01*
X932478Y572751D01*
X932597Y572693D01*
X932718Y572638D01*
X932840Y572587D01*
X932964Y572539D01*
X933089Y572495D01*
X933215Y572455D01*
X933343Y572419D01*
X933471Y572386D01*
X933600Y572357D01*
X933731Y572332D01*
X933861Y572311D01*
X933993Y572293D01*
X934125Y572280D01*
X934257Y572270D01*
X934389Y572264D01*
X934522Y572262D01*
X939038Y572262D01*
X939038Y588518D01*
X934522Y588518D01*
X934403Y588516D01*
X934283Y588510D01*
X934164Y588500D01*
X934046Y588486D01*
X933927Y588469D01*
X933810Y588447D01*
X933693Y588422D01*
X933578Y588392D01*
X933463Y588359D01*
X933349Y588322D01*
X933237Y588282D01*
X933126Y588237D01*
X933017Y588189D01*
X932909Y588138D01*
X932803Y588083D01*
X932699Y588024D01*
X932597Y587962D01*
X932497Y587897D01*
X932399Y587828D01*
X932303Y587756D01*
X932210Y587681D01*
X932120Y587604D01*
X932032Y587523D01*
X931947Y587439D01*
X931865Y587352D01*
X931785Y587263D01*
X931709Y587171D01*
X931635Y587077D01*
X931565Y586980D01*
X931498Y586882D01*
X931434Y586781D01*
X931374Y586677D01*
X931317Y586572D01*
X931264Y586465D01*
X931214Y586357D01*
X931168Y586247D01*
X931126Y586135D01*
X931087Y586022D01*
X931052Y585908D01*
X931021Y585793D01*
X930993Y585676D01*
X930970Y585559D01*
X930950Y585442D01*
X930934Y585323D01*
X930922Y585204D01*
X930914Y585085D01*
X930910Y584966D01*
X930910Y584846D01*
X930914Y584727D01*
X930922Y584608D01*
X930934Y584489D01*
X930950Y584370D01*
X930970Y584253D01*
X930993Y584136D01*
X931021Y584019D01*
X931052Y583904D01*
X931087Y583790D01*
X931126Y583677D01*
X931168Y583565D01*
X931214Y583455D01*
X931264Y583347D01*
X931317Y583240D01*
X931374Y583135D01*
X931434Y583031D01*
X931498Y582930D01*
X931565Y582832D01*
X931635Y582735D01*
X931709Y582641D01*
X931785Y582549D01*
X931865Y582460D01*
X931947Y582373D01*
X932032Y582289D01*
X932120Y582208D01*
X932210Y582131D01*
X932303Y582056D01*
X932399Y581984D01*
X932497Y581915D01*
X932597Y581850D01*
X932699Y581788D01*
X932803Y581729D01*
X932909Y581674D01*
X933017Y581623D01*
X933126Y581575D01*
X933237Y581530D01*
X933349Y581490D01*
X933463Y581453D01*
X933578Y581420D01*
X933693Y581390D01*
X933810Y581365D01*
X933927Y581343D01*
X934046Y581326D01*
X934164Y581312D01*
X934283Y581302D01*
X934403Y581296D01*
X934522Y581294D01*
X924139Y584906D02*
X919623Y588518D01*
X919623Y572262D01*
X915108Y572262D02*
X924139Y572262D01*
X908508Y575874D02*
X904895Y588518D01*
X908508Y575874D02*
X899476Y575874D01*
X902186Y572262D02*
X902186Y579487D01*
X934522Y555893D02*
X939038Y555893D01*
X934522Y555894D02*
X934389Y555892D01*
X934257Y555886D01*
X934125Y555876D01*
X933993Y555863D01*
X933861Y555845D01*
X933731Y555824D01*
X933600Y555799D01*
X933471Y555770D01*
X933343Y555737D01*
X933215Y555701D01*
X933089Y555661D01*
X932964Y555617D01*
X932840Y555569D01*
X932718Y555518D01*
X932597Y555463D01*
X932478Y555405D01*
X932360Y555343D01*
X932245Y555278D01*
X932131Y555209D01*
X932020Y555138D01*
X931911Y555062D01*
X931804Y554984D01*
X931699Y554903D01*
X931597Y554818D01*
X931497Y554731D01*
X931400Y554641D01*
X931305Y554548D01*
X931214Y554452D01*
X931125Y554354D01*
X931039Y554253D01*
X930956Y554149D01*
X930876Y554043D01*
X930800Y553935D01*
X930726Y553825D01*
X930656Y553712D01*
X930589Y553598D01*
X930526Y553481D01*
X930466Y553363D01*
X930409Y553243D01*
X930356Y553121D01*
X930307Y552998D01*
X930261Y552874D01*
X930219Y552748D01*
X930181Y552621D01*
X930146Y552493D01*
X930115Y552364D01*
X930088Y552235D01*
X930065Y552104D01*
X930045Y551973D01*
X930030Y551841D01*
X930018Y551709D01*
X930010Y551577D01*
X930006Y551444D01*
X930006Y551312D01*
X930010Y551179D01*
X930018Y551047D01*
X930030Y550915D01*
X930045Y550783D01*
X930065Y550652D01*
X930088Y550521D01*
X930115Y550392D01*
X930146Y550263D01*
X930181Y550135D01*
X930219Y550008D01*
X930261Y549882D01*
X930307Y549758D01*
X930356Y549635D01*
X930409Y549513D01*
X930466Y549393D01*
X930526Y549275D01*
X930589Y549158D01*
X930656Y549044D01*
X930726Y548931D01*
X930800Y548821D01*
X930876Y548713D01*
X930956Y548607D01*
X931039Y548503D01*
X931125Y548402D01*
X931214Y548304D01*
X931305Y548208D01*
X931400Y548115D01*
X931497Y548025D01*
X931597Y547938D01*
X931699Y547853D01*
X931804Y547772D01*
X931911Y547694D01*
X932020Y547618D01*
X932131Y547547D01*
X932245Y547478D01*
X932360Y547413D01*
X932478Y547351D01*
X932597Y547293D01*
X932718Y547238D01*
X932840Y547187D01*
X932964Y547139D01*
X933089Y547095D01*
X933215Y547055D01*
X933343Y547019D01*
X933471Y546986D01*
X933600Y546957D01*
X933731Y546932D01*
X933861Y546911D01*
X933993Y546893D01*
X934125Y546880D01*
X934257Y546870D01*
X934389Y546864D01*
X934522Y546862D01*
X939038Y546862D01*
X939038Y563118D01*
X934522Y563118D01*
X934403Y563116D01*
X934283Y563110D01*
X934164Y563100D01*
X934046Y563086D01*
X933927Y563069D01*
X933810Y563047D01*
X933693Y563022D01*
X933578Y562992D01*
X933463Y562959D01*
X933349Y562922D01*
X933237Y562882D01*
X933126Y562837D01*
X933017Y562789D01*
X932909Y562738D01*
X932803Y562683D01*
X932699Y562624D01*
X932597Y562562D01*
X932497Y562497D01*
X932399Y562428D01*
X932303Y562356D01*
X932210Y562281D01*
X932120Y562204D01*
X932032Y562123D01*
X931947Y562039D01*
X931865Y561952D01*
X931785Y561863D01*
X931709Y561771D01*
X931635Y561677D01*
X931565Y561580D01*
X931498Y561482D01*
X931434Y561381D01*
X931374Y561277D01*
X931317Y561172D01*
X931264Y561065D01*
X931214Y560957D01*
X931168Y560847D01*
X931126Y560735D01*
X931087Y560622D01*
X931052Y560508D01*
X931021Y560393D01*
X930993Y560276D01*
X930970Y560159D01*
X930950Y560042D01*
X930934Y559923D01*
X930922Y559804D01*
X930914Y559685D01*
X930910Y559566D01*
X930910Y559446D01*
X930914Y559327D01*
X930922Y559208D01*
X930934Y559089D01*
X930950Y558970D01*
X930970Y558853D01*
X930993Y558736D01*
X931021Y558619D01*
X931052Y558504D01*
X931087Y558390D01*
X931126Y558277D01*
X931168Y558165D01*
X931214Y558055D01*
X931264Y557947D01*
X931317Y557840D01*
X931374Y557735D01*
X931434Y557631D01*
X931498Y557530D01*
X931565Y557432D01*
X931635Y557335D01*
X931709Y557241D01*
X931785Y557149D01*
X931865Y557060D01*
X931947Y556973D01*
X932032Y556889D01*
X932120Y556808D01*
X932210Y556731D01*
X932303Y556656D01*
X932399Y556584D01*
X932497Y556515D01*
X932597Y556450D01*
X932699Y556388D01*
X932803Y556329D01*
X932909Y556274D01*
X933017Y556223D01*
X933126Y556175D01*
X933237Y556130D01*
X933349Y556090D01*
X933463Y556053D01*
X933578Y556020D01*
X933693Y555990D01*
X933810Y555965D01*
X933927Y555943D01*
X934046Y555926D01*
X934164Y555912D01*
X934283Y555902D01*
X934403Y555896D01*
X934522Y555894D01*
X924139Y559506D02*
X919623Y563118D01*
X919623Y546862D01*
X915108Y546862D02*
X924139Y546862D01*
X908508Y546862D02*
X903992Y546862D01*
X903859Y546864D01*
X903727Y546870D01*
X903595Y546880D01*
X903463Y546893D01*
X903331Y546911D01*
X903201Y546932D01*
X903070Y546957D01*
X902941Y546986D01*
X902813Y547019D01*
X902685Y547055D01*
X902559Y547095D01*
X902434Y547139D01*
X902310Y547187D01*
X902188Y547238D01*
X902067Y547293D01*
X901948Y547351D01*
X901830Y547413D01*
X901715Y547478D01*
X901601Y547547D01*
X901490Y547618D01*
X901381Y547694D01*
X901274Y547772D01*
X901169Y547853D01*
X901067Y547938D01*
X900967Y548025D01*
X900870Y548115D01*
X900775Y548208D01*
X900684Y548304D01*
X900595Y548402D01*
X900509Y548503D01*
X900426Y548607D01*
X900346Y548713D01*
X900270Y548821D01*
X900196Y548931D01*
X900126Y549044D01*
X900059Y549158D01*
X899996Y549275D01*
X899936Y549393D01*
X899879Y549513D01*
X899826Y549635D01*
X899777Y549758D01*
X899731Y549882D01*
X899689Y550008D01*
X899651Y550135D01*
X899616Y550263D01*
X899585Y550392D01*
X899558Y550521D01*
X899535Y550652D01*
X899515Y550783D01*
X899500Y550915D01*
X899488Y551047D01*
X899480Y551179D01*
X899476Y551312D01*
X899476Y551444D01*
X899480Y551577D01*
X899488Y551709D01*
X899500Y551841D01*
X899515Y551973D01*
X899535Y552104D01*
X899558Y552235D01*
X899585Y552364D01*
X899616Y552493D01*
X899651Y552621D01*
X899689Y552748D01*
X899731Y552874D01*
X899777Y552998D01*
X899826Y553121D01*
X899879Y553243D01*
X899936Y553363D01*
X899996Y553481D01*
X900059Y553598D01*
X900126Y553712D01*
X900196Y553825D01*
X900270Y553935D01*
X900346Y554043D01*
X900426Y554149D01*
X900509Y554253D01*
X900595Y554354D01*
X900684Y554452D01*
X900775Y554548D01*
X900870Y554641D01*
X900967Y554731D01*
X901067Y554818D01*
X901169Y554903D01*
X901274Y554984D01*
X901381Y555062D01*
X901490Y555138D01*
X901601Y555209D01*
X901715Y555278D01*
X901830Y555343D01*
X901948Y555405D01*
X902067Y555463D01*
X902188Y555518D01*
X902310Y555569D01*
X902434Y555617D01*
X902559Y555661D01*
X902685Y555701D01*
X902813Y555737D01*
X902941Y555770D01*
X903070Y555799D01*
X903201Y555824D01*
X903331Y555845D01*
X903463Y555863D01*
X903595Y555876D01*
X903727Y555886D01*
X903859Y555892D01*
X903992Y555894D01*
X903089Y563118D02*
X908508Y563118D01*
X903089Y563118D02*
X902970Y563116D01*
X902850Y563110D01*
X902731Y563100D01*
X902613Y563086D01*
X902494Y563069D01*
X902377Y563047D01*
X902260Y563022D01*
X902145Y562992D01*
X902030Y562959D01*
X901916Y562922D01*
X901804Y562882D01*
X901693Y562837D01*
X901584Y562789D01*
X901476Y562738D01*
X901370Y562683D01*
X901266Y562624D01*
X901164Y562562D01*
X901064Y562497D01*
X900966Y562428D01*
X900870Y562356D01*
X900777Y562281D01*
X900687Y562204D01*
X900599Y562123D01*
X900514Y562039D01*
X900432Y561952D01*
X900352Y561863D01*
X900276Y561771D01*
X900202Y561677D01*
X900132Y561580D01*
X900065Y561482D01*
X900001Y561381D01*
X899941Y561277D01*
X899884Y561172D01*
X899831Y561065D01*
X899781Y560957D01*
X899735Y560847D01*
X899693Y560735D01*
X899654Y560622D01*
X899619Y560508D01*
X899588Y560393D01*
X899560Y560276D01*
X899537Y560159D01*
X899517Y560042D01*
X899501Y559923D01*
X899489Y559804D01*
X899481Y559685D01*
X899477Y559566D01*
X899477Y559446D01*
X899481Y559327D01*
X899489Y559208D01*
X899501Y559089D01*
X899517Y558970D01*
X899537Y558853D01*
X899560Y558736D01*
X899588Y558619D01*
X899619Y558504D01*
X899654Y558390D01*
X899693Y558277D01*
X899735Y558165D01*
X899781Y558055D01*
X899831Y557947D01*
X899884Y557840D01*
X899941Y557735D01*
X900001Y557631D01*
X900065Y557530D01*
X900132Y557432D01*
X900202Y557335D01*
X900276Y557241D01*
X900352Y557149D01*
X900432Y557060D01*
X900514Y556973D01*
X900599Y556889D01*
X900687Y556808D01*
X900777Y556731D01*
X900870Y556656D01*
X900966Y556584D01*
X901064Y556515D01*
X901164Y556450D01*
X901266Y556388D01*
X901370Y556329D01*
X901476Y556274D01*
X901584Y556223D01*
X901693Y556175D01*
X901804Y556130D01*
X901916Y556090D01*
X902030Y556053D01*
X902145Y556020D01*
X902260Y555990D01*
X902377Y555965D01*
X902494Y555943D01*
X902613Y555926D01*
X902731Y555912D01*
X902850Y555902D01*
X902970Y555896D01*
X903089Y555894D01*
X903089Y555893D02*
X906701Y555893D01*
X934522Y530493D02*
X939038Y530493D01*
X934522Y530494D02*
X934389Y530492D01*
X934257Y530486D01*
X934125Y530476D01*
X933993Y530463D01*
X933861Y530445D01*
X933731Y530424D01*
X933600Y530399D01*
X933471Y530370D01*
X933343Y530337D01*
X933215Y530301D01*
X933089Y530261D01*
X932964Y530217D01*
X932840Y530169D01*
X932718Y530118D01*
X932597Y530063D01*
X932478Y530005D01*
X932360Y529943D01*
X932245Y529878D01*
X932131Y529809D01*
X932020Y529738D01*
X931911Y529662D01*
X931804Y529584D01*
X931699Y529503D01*
X931597Y529418D01*
X931497Y529331D01*
X931400Y529241D01*
X931305Y529148D01*
X931214Y529052D01*
X931125Y528954D01*
X931039Y528853D01*
X930956Y528749D01*
X930876Y528643D01*
X930800Y528535D01*
X930726Y528425D01*
X930656Y528312D01*
X930589Y528198D01*
X930526Y528081D01*
X930466Y527963D01*
X930409Y527843D01*
X930356Y527721D01*
X930307Y527598D01*
X930261Y527474D01*
X930219Y527348D01*
X930181Y527221D01*
X930146Y527093D01*
X930115Y526964D01*
X930088Y526835D01*
X930065Y526704D01*
X930045Y526573D01*
X930030Y526441D01*
X930018Y526309D01*
X930010Y526177D01*
X930006Y526044D01*
X930006Y525912D01*
X930010Y525779D01*
X930018Y525647D01*
X930030Y525515D01*
X930045Y525383D01*
X930065Y525252D01*
X930088Y525121D01*
X930115Y524992D01*
X930146Y524863D01*
X930181Y524735D01*
X930219Y524608D01*
X930261Y524482D01*
X930307Y524358D01*
X930356Y524235D01*
X930409Y524113D01*
X930466Y523993D01*
X930526Y523875D01*
X930589Y523758D01*
X930656Y523644D01*
X930726Y523531D01*
X930800Y523421D01*
X930876Y523313D01*
X930956Y523207D01*
X931039Y523103D01*
X931125Y523002D01*
X931214Y522904D01*
X931305Y522808D01*
X931400Y522715D01*
X931497Y522625D01*
X931597Y522538D01*
X931699Y522453D01*
X931804Y522372D01*
X931911Y522294D01*
X932020Y522218D01*
X932131Y522147D01*
X932245Y522078D01*
X932360Y522013D01*
X932478Y521951D01*
X932597Y521893D01*
X932718Y521838D01*
X932840Y521787D01*
X932964Y521739D01*
X933089Y521695D01*
X933215Y521655D01*
X933343Y521619D01*
X933471Y521586D01*
X933600Y521557D01*
X933731Y521532D01*
X933861Y521511D01*
X933993Y521493D01*
X934125Y521480D01*
X934257Y521470D01*
X934389Y521464D01*
X934522Y521462D01*
X939038Y521462D01*
X939038Y537718D01*
X934522Y537718D01*
X934403Y537716D01*
X934283Y537710D01*
X934164Y537700D01*
X934046Y537686D01*
X933927Y537669D01*
X933810Y537647D01*
X933693Y537622D01*
X933578Y537592D01*
X933463Y537559D01*
X933349Y537522D01*
X933237Y537482D01*
X933126Y537437D01*
X933017Y537389D01*
X932909Y537338D01*
X932803Y537283D01*
X932699Y537224D01*
X932597Y537162D01*
X932497Y537097D01*
X932399Y537028D01*
X932303Y536956D01*
X932210Y536881D01*
X932120Y536804D01*
X932032Y536723D01*
X931947Y536639D01*
X931865Y536552D01*
X931785Y536463D01*
X931709Y536371D01*
X931635Y536277D01*
X931565Y536180D01*
X931498Y536082D01*
X931434Y535981D01*
X931374Y535877D01*
X931317Y535772D01*
X931264Y535665D01*
X931214Y535557D01*
X931168Y535447D01*
X931126Y535335D01*
X931087Y535222D01*
X931052Y535108D01*
X931021Y534993D01*
X930993Y534876D01*
X930970Y534759D01*
X930950Y534642D01*
X930934Y534523D01*
X930922Y534404D01*
X930914Y534285D01*
X930910Y534166D01*
X930910Y534046D01*
X930914Y533927D01*
X930922Y533808D01*
X930934Y533689D01*
X930950Y533570D01*
X930970Y533453D01*
X930993Y533336D01*
X931021Y533219D01*
X931052Y533104D01*
X931087Y532990D01*
X931126Y532877D01*
X931168Y532765D01*
X931214Y532655D01*
X931264Y532547D01*
X931317Y532440D01*
X931374Y532335D01*
X931434Y532231D01*
X931498Y532130D01*
X931565Y532032D01*
X931635Y531935D01*
X931709Y531841D01*
X931785Y531749D01*
X931865Y531660D01*
X931947Y531573D01*
X932032Y531489D01*
X932120Y531408D01*
X932210Y531331D01*
X932303Y531256D01*
X932399Y531184D01*
X932497Y531115D01*
X932597Y531050D01*
X932699Y530988D01*
X932803Y530929D01*
X932909Y530874D01*
X933017Y530823D01*
X933126Y530775D01*
X933237Y530730D01*
X933349Y530690D01*
X933463Y530653D01*
X933578Y530620D01*
X933693Y530590D01*
X933810Y530565D01*
X933927Y530543D01*
X934046Y530526D01*
X934164Y530512D01*
X934283Y530502D01*
X934403Y530496D01*
X934522Y530494D01*
X920526Y528687D02*
X915108Y528687D01*
X920526Y528687D02*
X920644Y528689D01*
X920762Y528695D01*
X920880Y528704D01*
X920997Y528718D01*
X921114Y528735D01*
X921231Y528756D01*
X921346Y528781D01*
X921461Y528810D01*
X921575Y528843D01*
X921687Y528879D01*
X921798Y528919D01*
X921908Y528962D01*
X922017Y529009D01*
X922124Y529059D01*
X922229Y529114D01*
X922332Y529171D01*
X922433Y529232D01*
X922533Y529296D01*
X922630Y529363D01*
X922725Y529433D01*
X922817Y529507D01*
X922908Y529583D01*
X922995Y529663D01*
X923080Y529745D01*
X923162Y529830D01*
X923242Y529917D01*
X923318Y530008D01*
X923392Y530100D01*
X923462Y530195D01*
X923529Y530292D01*
X923593Y530392D01*
X923654Y530493D01*
X923711Y530596D01*
X923766Y530701D01*
X923816Y530808D01*
X923863Y530917D01*
X923906Y531027D01*
X923946Y531138D01*
X923982Y531250D01*
X924015Y531364D01*
X924044Y531479D01*
X924069Y531594D01*
X924090Y531711D01*
X924107Y531828D01*
X924121Y531945D01*
X924130Y532063D01*
X924136Y532181D01*
X924138Y532299D01*
X924139Y532299D02*
X924139Y533202D01*
X924137Y533335D01*
X924131Y533467D01*
X924121Y533599D01*
X924108Y533731D01*
X924090Y533863D01*
X924069Y533993D01*
X924044Y534124D01*
X924015Y534253D01*
X923982Y534381D01*
X923946Y534509D01*
X923906Y534635D01*
X923862Y534760D01*
X923814Y534884D01*
X923763Y535006D01*
X923708Y535127D01*
X923650Y535246D01*
X923588Y535364D01*
X923523Y535479D01*
X923454Y535593D01*
X923383Y535704D01*
X923307Y535813D01*
X923229Y535920D01*
X923148Y536025D01*
X923063Y536127D01*
X922976Y536227D01*
X922886Y536324D01*
X922793Y536419D01*
X922697Y536510D01*
X922599Y536599D01*
X922498Y536685D01*
X922394Y536768D01*
X922288Y536848D01*
X922180Y536924D01*
X922070Y536998D01*
X921957Y537068D01*
X921843Y537135D01*
X921726Y537198D01*
X921608Y537258D01*
X921488Y537315D01*
X921366Y537368D01*
X921243Y537417D01*
X921119Y537463D01*
X920993Y537505D01*
X920866Y537543D01*
X920738Y537578D01*
X920609Y537609D01*
X920480Y537636D01*
X920349Y537659D01*
X920218Y537679D01*
X920086Y537694D01*
X919954Y537706D01*
X919822Y537714D01*
X919689Y537718D01*
X919557Y537718D01*
X919424Y537714D01*
X919292Y537706D01*
X919160Y537694D01*
X919028Y537679D01*
X918897Y537659D01*
X918766Y537636D01*
X918637Y537609D01*
X918508Y537578D01*
X918380Y537543D01*
X918253Y537505D01*
X918127Y537463D01*
X918003Y537417D01*
X917880Y537368D01*
X917758Y537315D01*
X917638Y537258D01*
X917520Y537198D01*
X917403Y537135D01*
X917289Y537068D01*
X917176Y536998D01*
X917066Y536924D01*
X916958Y536848D01*
X916852Y536768D01*
X916748Y536685D01*
X916647Y536599D01*
X916549Y536510D01*
X916453Y536419D01*
X916360Y536324D01*
X916270Y536227D01*
X916183Y536127D01*
X916098Y536025D01*
X916017Y535920D01*
X915939Y535813D01*
X915863Y535704D01*
X915792Y535593D01*
X915723Y535479D01*
X915658Y535364D01*
X915596Y535246D01*
X915538Y535127D01*
X915483Y535006D01*
X915432Y534884D01*
X915384Y534760D01*
X915340Y534635D01*
X915300Y534509D01*
X915264Y534381D01*
X915231Y534253D01*
X915202Y534124D01*
X915177Y533993D01*
X915156Y533863D01*
X915138Y533731D01*
X915125Y533599D01*
X915115Y533467D01*
X915109Y533335D01*
X915107Y533202D01*
X915108Y533202D02*
X915108Y528687D01*
X915110Y528512D01*
X915116Y528338D01*
X915127Y528164D01*
X915142Y527990D01*
X915161Y527816D01*
X915184Y527643D01*
X915211Y527471D01*
X915243Y527299D01*
X915278Y527128D01*
X915318Y526958D01*
X915362Y526789D01*
X915410Y526621D01*
X915462Y526454D01*
X915518Y526289D01*
X915578Y526125D01*
X915641Y525962D01*
X915709Y525802D01*
X915781Y525642D01*
X915856Y525485D01*
X915936Y525329D01*
X916019Y525176D01*
X916105Y525024D01*
X916196Y524875D01*
X916290Y524728D01*
X916387Y524583D01*
X916488Y524440D01*
X916592Y524300D01*
X916700Y524163D01*
X916811Y524028D01*
X916925Y523896D01*
X917042Y523767D01*
X917163Y523640D01*
X917286Y523517D01*
X917413Y523396D01*
X917542Y523279D01*
X917674Y523165D01*
X917809Y523054D01*
X917946Y522946D01*
X918086Y522842D01*
X918229Y522741D01*
X918374Y522644D01*
X918521Y522550D01*
X918670Y522459D01*
X918822Y522373D01*
X918975Y522290D01*
X919131Y522210D01*
X919288Y522135D01*
X919448Y522063D01*
X919608Y521995D01*
X919771Y521932D01*
X919935Y521872D01*
X920100Y521816D01*
X920267Y521764D01*
X920435Y521716D01*
X920604Y521672D01*
X920774Y521632D01*
X920945Y521597D01*
X921117Y521565D01*
X921289Y521538D01*
X921462Y521515D01*
X921636Y521496D01*
X921810Y521481D01*
X921984Y521470D01*
X922158Y521464D01*
X922333Y521462D01*
X934522Y505093D02*
X939038Y505093D01*
X934522Y505094D02*
X934389Y505092D01*
X934257Y505086D01*
X934125Y505076D01*
X933993Y505063D01*
X933861Y505045D01*
X933731Y505024D01*
X933600Y504999D01*
X933471Y504970D01*
X933343Y504937D01*
X933215Y504901D01*
X933089Y504861D01*
X932964Y504817D01*
X932840Y504769D01*
X932718Y504718D01*
X932597Y504663D01*
X932478Y504605D01*
X932360Y504543D01*
X932245Y504478D01*
X932131Y504409D01*
X932020Y504338D01*
X931911Y504262D01*
X931804Y504184D01*
X931699Y504103D01*
X931597Y504018D01*
X931497Y503931D01*
X931400Y503841D01*
X931305Y503748D01*
X931214Y503652D01*
X931125Y503554D01*
X931039Y503453D01*
X930956Y503349D01*
X930876Y503243D01*
X930800Y503135D01*
X930726Y503025D01*
X930656Y502912D01*
X930589Y502798D01*
X930526Y502681D01*
X930466Y502563D01*
X930409Y502443D01*
X930356Y502321D01*
X930307Y502198D01*
X930261Y502074D01*
X930219Y501948D01*
X930181Y501821D01*
X930146Y501693D01*
X930115Y501564D01*
X930088Y501435D01*
X930065Y501304D01*
X930045Y501173D01*
X930030Y501041D01*
X930018Y500909D01*
X930010Y500777D01*
X930006Y500644D01*
X930006Y500512D01*
X930010Y500379D01*
X930018Y500247D01*
X930030Y500115D01*
X930045Y499983D01*
X930065Y499852D01*
X930088Y499721D01*
X930115Y499592D01*
X930146Y499463D01*
X930181Y499335D01*
X930219Y499208D01*
X930261Y499082D01*
X930307Y498958D01*
X930356Y498835D01*
X930409Y498713D01*
X930466Y498593D01*
X930526Y498475D01*
X930589Y498358D01*
X930656Y498244D01*
X930726Y498131D01*
X930800Y498021D01*
X930876Y497913D01*
X930956Y497807D01*
X931039Y497703D01*
X931125Y497602D01*
X931214Y497504D01*
X931305Y497408D01*
X931400Y497315D01*
X931497Y497225D01*
X931597Y497138D01*
X931699Y497053D01*
X931804Y496972D01*
X931911Y496894D01*
X932020Y496818D01*
X932131Y496747D01*
X932245Y496678D01*
X932360Y496613D01*
X932478Y496551D01*
X932597Y496493D01*
X932718Y496438D01*
X932840Y496387D01*
X932964Y496339D01*
X933089Y496295D01*
X933215Y496255D01*
X933343Y496219D01*
X933471Y496186D01*
X933600Y496157D01*
X933731Y496132D01*
X933861Y496111D01*
X933993Y496093D01*
X934125Y496080D01*
X934257Y496070D01*
X934389Y496064D01*
X934522Y496062D01*
X939038Y496062D01*
X939038Y512318D01*
X934522Y512318D01*
X934403Y512316D01*
X934283Y512310D01*
X934164Y512300D01*
X934046Y512286D01*
X933927Y512269D01*
X933810Y512247D01*
X933693Y512222D01*
X933578Y512192D01*
X933463Y512159D01*
X933349Y512122D01*
X933237Y512082D01*
X933126Y512037D01*
X933017Y511989D01*
X932909Y511938D01*
X932803Y511883D01*
X932699Y511824D01*
X932597Y511762D01*
X932497Y511697D01*
X932399Y511628D01*
X932303Y511556D01*
X932210Y511481D01*
X932120Y511404D01*
X932032Y511323D01*
X931947Y511239D01*
X931865Y511152D01*
X931785Y511063D01*
X931709Y510971D01*
X931635Y510877D01*
X931565Y510780D01*
X931498Y510682D01*
X931434Y510581D01*
X931374Y510477D01*
X931317Y510372D01*
X931264Y510265D01*
X931214Y510157D01*
X931168Y510047D01*
X931126Y509935D01*
X931087Y509822D01*
X931052Y509708D01*
X931021Y509593D01*
X930993Y509476D01*
X930970Y509359D01*
X930950Y509242D01*
X930934Y509123D01*
X930922Y509004D01*
X930914Y508885D01*
X930910Y508766D01*
X930910Y508646D01*
X930914Y508527D01*
X930922Y508408D01*
X930934Y508289D01*
X930950Y508170D01*
X930970Y508053D01*
X930993Y507936D01*
X931021Y507819D01*
X931052Y507704D01*
X931087Y507590D01*
X931126Y507477D01*
X931168Y507365D01*
X931214Y507255D01*
X931264Y507147D01*
X931317Y507040D01*
X931374Y506935D01*
X931434Y506831D01*
X931498Y506730D01*
X931565Y506632D01*
X931635Y506535D01*
X931709Y506441D01*
X931785Y506349D01*
X931865Y506260D01*
X931947Y506173D01*
X932032Y506089D01*
X932120Y506008D01*
X932210Y505931D01*
X932303Y505856D01*
X932399Y505784D01*
X932497Y505715D01*
X932597Y505650D01*
X932699Y505588D01*
X932803Y505529D01*
X932909Y505474D01*
X933017Y505423D01*
X933126Y505375D01*
X933237Y505330D01*
X933349Y505290D01*
X933463Y505253D01*
X933578Y505220D01*
X933693Y505190D01*
X933810Y505165D01*
X933927Y505143D01*
X934046Y505126D01*
X934164Y505112D01*
X934283Y505102D01*
X934403Y505096D01*
X934522Y505094D01*
X924139Y500578D02*
X924137Y500711D01*
X924131Y500843D01*
X924121Y500975D01*
X924108Y501107D01*
X924090Y501239D01*
X924069Y501369D01*
X924044Y501500D01*
X924015Y501629D01*
X923982Y501757D01*
X923946Y501885D01*
X923906Y502011D01*
X923862Y502136D01*
X923814Y502260D01*
X923763Y502382D01*
X923708Y502503D01*
X923650Y502622D01*
X923588Y502740D01*
X923523Y502855D01*
X923454Y502969D01*
X923383Y503080D01*
X923307Y503189D01*
X923229Y503296D01*
X923148Y503401D01*
X923063Y503503D01*
X922976Y503603D01*
X922886Y503700D01*
X922793Y503795D01*
X922697Y503886D01*
X922599Y503975D01*
X922498Y504061D01*
X922394Y504144D01*
X922288Y504224D01*
X922180Y504300D01*
X922070Y504374D01*
X921957Y504444D01*
X921843Y504511D01*
X921726Y504574D01*
X921608Y504634D01*
X921488Y504691D01*
X921366Y504744D01*
X921243Y504793D01*
X921119Y504839D01*
X920993Y504881D01*
X920866Y504919D01*
X920738Y504954D01*
X920609Y504985D01*
X920480Y505012D01*
X920349Y505035D01*
X920218Y505055D01*
X920086Y505070D01*
X919954Y505082D01*
X919822Y505090D01*
X919689Y505094D01*
X919557Y505094D01*
X919424Y505090D01*
X919292Y505082D01*
X919160Y505070D01*
X919028Y505055D01*
X918897Y505035D01*
X918766Y505012D01*
X918637Y504985D01*
X918508Y504954D01*
X918380Y504919D01*
X918253Y504881D01*
X918127Y504839D01*
X918003Y504793D01*
X917880Y504744D01*
X917758Y504691D01*
X917638Y504634D01*
X917520Y504574D01*
X917403Y504511D01*
X917289Y504444D01*
X917176Y504374D01*
X917066Y504300D01*
X916958Y504224D01*
X916852Y504144D01*
X916748Y504061D01*
X916647Y503975D01*
X916549Y503886D01*
X916453Y503795D01*
X916360Y503700D01*
X916270Y503603D01*
X916183Y503503D01*
X916098Y503401D01*
X916017Y503296D01*
X915939Y503189D01*
X915863Y503080D01*
X915792Y502969D01*
X915723Y502855D01*
X915658Y502740D01*
X915596Y502622D01*
X915538Y502503D01*
X915483Y502382D01*
X915432Y502260D01*
X915384Y502136D01*
X915340Y502011D01*
X915300Y501885D01*
X915264Y501757D01*
X915231Y501629D01*
X915202Y501500D01*
X915177Y501369D01*
X915156Y501239D01*
X915138Y501107D01*
X915125Y500975D01*
X915115Y500843D01*
X915109Y500711D01*
X915107Y500578D01*
X915109Y500445D01*
X915115Y500313D01*
X915125Y500181D01*
X915138Y500049D01*
X915156Y499917D01*
X915177Y499787D01*
X915202Y499656D01*
X915231Y499527D01*
X915264Y499399D01*
X915300Y499271D01*
X915340Y499145D01*
X915384Y499020D01*
X915432Y498896D01*
X915483Y498774D01*
X915538Y498653D01*
X915596Y498534D01*
X915658Y498416D01*
X915723Y498301D01*
X915792Y498187D01*
X915863Y498076D01*
X915939Y497967D01*
X916017Y497860D01*
X916098Y497755D01*
X916183Y497653D01*
X916270Y497553D01*
X916360Y497456D01*
X916453Y497361D01*
X916549Y497270D01*
X916647Y497181D01*
X916748Y497095D01*
X916852Y497012D01*
X916958Y496932D01*
X917066Y496856D01*
X917176Y496782D01*
X917289Y496712D01*
X917403Y496645D01*
X917520Y496582D01*
X917638Y496522D01*
X917758Y496465D01*
X917880Y496412D01*
X918003Y496363D01*
X918127Y496317D01*
X918253Y496275D01*
X918380Y496237D01*
X918508Y496202D01*
X918637Y496171D01*
X918766Y496144D01*
X918897Y496121D01*
X919028Y496101D01*
X919160Y496086D01*
X919292Y496074D01*
X919424Y496066D01*
X919557Y496062D01*
X919689Y496062D01*
X919822Y496066D01*
X919954Y496074D01*
X920086Y496086D01*
X920218Y496101D01*
X920349Y496121D01*
X920480Y496144D01*
X920609Y496171D01*
X920738Y496202D01*
X920866Y496237D01*
X920993Y496275D01*
X921119Y496317D01*
X921243Y496363D01*
X921366Y496412D01*
X921488Y496465D01*
X921608Y496522D01*
X921726Y496582D01*
X921843Y496645D01*
X921957Y496712D01*
X922070Y496782D01*
X922180Y496856D01*
X922288Y496932D01*
X922394Y497012D01*
X922498Y497095D01*
X922599Y497181D01*
X922697Y497270D01*
X922793Y497361D01*
X922886Y497456D01*
X922976Y497553D01*
X923063Y497653D01*
X923148Y497755D01*
X923229Y497860D01*
X923307Y497967D01*
X923383Y498076D01*
X923454Y498187D01*
X923523Y498301D01*
X923588Y498416D01*
X923650Y498534D01*
X923708Y498653D01*
X923763Y498774D01*
X923814Y498896D01*
X923862Y499020D01*
X923906Y499145D01*
X923946Y499271D01*
X923982Y499399D01*
X924015Y499527D01*
X924044Y499656D01*
X924069Y499787D01*
X924090Y499917D01*
X924108Y500049D01*
X924121Y500181D01*
X924131Y500313D01*
X924137Y500445D01*
X924139Y500578D01*
X923235Y508706D02*
X923233Y508825D01*
X923227Y508945D01*
X923217Y509064D01*
X923203Y509182D01*
X923186Y509301D01*
X923164Y509418D01*
X923139Y509535D01*
X923109Y509650D01*
X923076Y509765D01*
X923039Y509879D01*
X922999Y509991D01*
X922954Y510102D01*
X922906Y510211D01*
X922855Y510319D01*
X922800Y510425D01*
X922741Y510529D01*
X922679Y510631D01*
X922614Y510731D01*
X922545Y510829D01*
X922473Y510925D01*
X922398Y511018D01*
X922321Y511108D01*
X922240Y511196D01*
X922156Y511281D01*
X922069Y511363D01*
X921980Y511443D01*
X921888Y511519D01*
X921794Y511593D01*
X921697Y511663D01*
X921599Y511730D01*
X921498Y511794D01*
X921394Y511854D01*
X921289Y511911D01*
X921182Y511964D01*
X921074Y512014D01*
X920964Y512060D01*
X920852Y512102D01*
X920739Y512141D01*
X920625Y512176D01*
X920510Y512207D01*
X920393Y512235D01*
X920276Y512258D01*
X920159Y512278D01*
X920040Y512294D01*
X919921Y512306D01*
X919802Y512314D01*
X919683Y512318D01*
X919563Y512318D01*
X919444Y512314D01*
X919325Y512306D01*
X919206Y512294D01*
X919087Y512278D01*
X918970Y512258D01*
X918853Y512235D01*
X918736Y512207D01*
X918621Y512176D01*
X918507Y512141D01*
X918394Y512102D01*
X918282Y512060D01*
X918172Y512014D01*
X918064Y511964D01*
X917957Y511911D01*
X917852Y511854D01*
X917748Y511794D01*
X917647Y511730D01*
X917549Y511663D01*
X917452Y511593D01*
X917358Y511519D01*
X917266Y511443D01*
X917177Y511363D01*
X917090Y511281D01*
X917006Y511196D01*
X916925Y511108D01*
X916848Y511018D01*
X916773Y510925D01*
X916701Y510829D01*
X916632Y510731D01*
X916567Y510631D01*
X916505Y510529D01*
X916446Y510425D01*
X916391Y510319D01*
X916340Y510211D01*
X916292Y510102D01*
X916247Y509991D01*
X916207Y509879D01*
X916170Y509765D01*
X916137Y509650D01*
X916107Y509535D01*
X916082Y509418D01*
X916060Y509301D01*
X916043Y509182D01*
X916029Y509064D01*
X916019Y508945D01*
X916013Y508825D01*
X916011Y508706D01*
X916013Y508587D01*
X916019Y508467D01*
X916029Y508348D01*
X916043Y508230D01*
X916060Y508111D01*
X916082Y507994D01*
X916107Y507877D01*
X916137Y507762D01*
X916170Y507647D01*
X916207Y507533D01*
X916247Y507421D01*
X916292Y507310D01*
X916340Y507201D01*
X916391Y507093D01*
X916446Y506987D01*
X916505Y506883D01*
X916567Y506781D01*
X916632Y506681D01*
X916701Y506583D01*
X916773Y506487D01*
X916848Y506394D01*
X916925Y506304D01*
X917006Y506216D01*
X917090Y506131D01*
X917177Y506049D01*
X917266Y505969D01*
X917358Y505893D01*
X917452Y505819D01*
X917549Y505749D01*
X917647Y505682D01*
X917748Y505618D01*
X917852Y505558D01*
X917957Y505501D01*
X918064Y505448D01*
X918172Y505398D01*
X918282Y505352D01*
X918394Y505310D01*
X918507Y505271D01*
X918621Y505236D01*
X918736Y505205D01*
X918853Y505177D01*
X918970Y505154D01*
X919087Y505134D01*
X919206Y505118D01*
X919325Y505106D01*
X919444Y505098D01*
X919563Y505094D01*
X919683Y505094D01*
X919802Y505098D01*
X919921Y505106D01*
X920040Y505118D01*
X920159Y505134D01*
X920276Y505154D01*
X920393Y505177D01*
X920510Y505205D01*
X920625Y505236D01*
X920739Y505271D01*
X920852Y505310D01*
X920964Y505352D01*
X921074Y505398D01*
X921182Y505448D01*
X921289Y505501D01*
X921394Y505558D01*
X921498Y505618D01*
X921599Y505682D01*
X921697Y505749D01*
X921794Y505819D01*
X921888Y505893D01*
X921980Y505969D01*
X922069Y506049D01*
X922156Y506131D01*
X922240Y506216D01*
X922321Y506304D01*
X922398Y506394D01*
X922473Y506487D01*
X922545Y506583D01*
X922614Y506681D01*
X922679Y506781D01*
X922741Y506883D01*
X922800Y506987D01*
X922855Y507093D01*
X922906Y507201D01*
X922954Y507310D01*
X922999Y507421D01*
X923039Y507533D01*
X923076Y507647D01*
X923109Y507762D01*
X923139Y507877D01*
X923164Y507994D01*
X923186Y508111D01*
X923203Y508230D01*
X923217Y508348D01*
X923227Y508467D01*
X923233Y508587D01*
X923235Y508706D01*
X934522Y479693D02*
X939038Y479693D01*
X934522Y479694D02*
X934389Y479692D01*
X934257Y479686D01*
X934125Y479676D01*
X933993Y479663D01*
X933861Y479645D01*
X933731Y479624D01*
X933600Y479599D01*
X933471Y479570D01*
X933343Y479537D01*
X933215Y479501D01*
X933089Y479461D01*
X932964Y479417D01*
X932840Y479369D01*
X932718Y479318D01*
X932597Y479263D01*
X932478Y479205D01*
X932360Y479143D01*
X932245Y479078D01*
X932131Y479009D01*
X932020Y478938D01*
X931911Y478862D01*
X931804Y478784D01*
X931699Y478703D01*
X931597Y478618D01*
X931497Y478531D01*
X931400Y478441D01*
X931305Y478348D01*
X931214Y478252D01*
X931125Y478154D01*
X931039Y478053D01*
X930956Y477949D01*
X930876Y477843D01*
X930800Y477735D01*
X930726Y477625D01*
X930656Y477512D01*
X930589Y477398D01*
X930526Y477281D01*
X930466Y477163D01*
X930409Y477043D01*
X930356Y476921D01*
X930307Y476798D01*
X930261Y476674D01*
X930219Y476548D01*
X930181Y476421D01*
X930146Y476293D01*
X930115Y476164D01*
X930088Y476035D01*
X930065Y475904D01*
X930045Y475773D01*
X930030Y475641D01*
X930018Y475509D01*
X930010Y475377D01*
X930006Y475244D01*
X930006Y475112D01*
X930010Y474979D01*
X930018Y474847D01*
X930030Y474715D01*
X930045Y474583D01*
X930065Y474452D01*
X930088Y474321D01*
X930115Y474192D01*
X930146Y474063D01*
X930181Y473935D01*
X930219Y473808D01*
X930261Y473682D01*
X930307Y473558D01*
X930356Y473435D01*
X930409Y473313D01*
X930466Y473193D01*
X930526Y473075D01*
X930589Y472958D01*
X930656Y472844D01*
X930726Y472731D01*
X930800Y472621D01*
X930876Y472513D01*
X930956Y472407D01*
X931039Y472303D01*
X931125Y472202D01*
X931214Y472104D01*
X931305Y472008D01*
X931400Y471915D01*
X931497Y471825D01*
X931597Y471738D01*
X931699Y471653D01*
X931804Y471572D01*
X931911Y471494D01*
X932020Y471418D01*
X932131Y471347D01*
X932245Y471278D01*
X932360Y471213D01*
X932478Y471151D01*
X932597Y471093D01*
X932718Y471038D01*
X932840Y470987D01*
X932964Y470939D01*
X933089Y470895D01*
X933215Y470855D01*
X933343Y470819D01*
X933471Y470786D01*
X933600Y470757D01*
X933731Y470732D01*
X933861Y470711D01*
X933993Y470693D01*
X934125Y470680D01*
X934257Y470670D01*
X934389Y470664D01*
X934522Y470662D01*
X939038Y470662D01*
X939038Y486918D01*
X934522Y486918D01*
X934403Y486916D01*
X934283Y486910D01*
X934164Y486900D01*
X934046Y486886D01*
X933927Y486869D01*
X933810Y486847D01*
X933693Y486822D01*
X933578Y486792D01*
X933463Y486759D01*
X933349Y486722D01*
X933237Y486682D01*
X933126Y486637D01*
X933017Y486589D01*
X932909Y486538D01*
X932803Y486483D01*
X932699Y486424D01*
X932597Y486362D01*
X932497Y486297D01*
X932399Y486228D01*
X932303Y486156D01*
X932210Y486081D01*
X932120Y486004D01*
X932032Y485923D01*
X931947Y485839D01*
X931865Y485752D01*
X931785Y485663D01*
X931709Y485571D01*
X931635Y485477D01*
X931565Y485380D01*
X931498Y485282D01*
X931434Y485181D01*
X931374Y485077D01*
X931317Y484972D01*
X931264Y484865D01*
X931214Y484757D01*
X931168Y484647D01*
X931126Y484535D01*
X931087Y484422D01*
X931052Y484308D01*
X931021Y484193D01*
X930993Y484076D01*
X930970Y483959D01*
X930950Y483842D01*
X930934Y483723D01*
X930922Y483604D01*
X930914Y483485D01*
X930910Y483366D01*
X930910Y483246D01*
X930914Y483127D01*
X930922Y483008D01*
X930934Y482889D01*
X930950Y482770D01*
X930970Y482653D01*
X930993Y482536D01*
X931021Y482419D01*
X931052Y482304D01*
X931087Y482190D01*
X931126Y482077D01*
X931168Y481965D01*
X931214Y481855D01*
X931264Y481747D01*
X931317Y481640D01*
X931374Y481535D01*
X931434Y481431D01*
X931498Y481330D01*
X931565Y481232D01*
X931635Y481135D01*
X931709Y481041D01*
X931785Y480949D01*
X931865Y480860D01*
X931947Y480773D01*
X932032Y480689D01*
X932120Y480608D01*
X932210Y480531D01*
X932303Y480456D01*
X932399Y480384D01*
X932497Y480315D01*
X932597Y480250D01*
X932699Y480188D01*
X932803Y480129D01*
X932909Y480074D01*
X933017Y480023D01*
X933126Y479975D01*
X933237Y479930D01*
X933349Y479890D01*
X933463Y479853D01*
X933578Y479820D01*
X933693Y479790D01*
X933810Y479765D01*
X933927Y479743D01*
X934046Y479726D01*
X934164Y479712D01*
X934283Y479702D01*
X934403Y479696D01*
X934522Y479694D01*
X924139Y485112D02*
X924139Y486918D01*
X915108Y486918D01*
X919623Y470662D01*
X933619Y445262D02*
X939038Y445262D01*
X933619Y445262D02*
X933501Y445264D01*
X933383Y445270D01*
X933265Y445279D01*
X933148Y445293D01*
X933031Y445310D01*
X932914Y445331D01*
X932799Y445356D01*
X932684Y445385D01*
X932570Y445418D01*
X932458Y445454D01*
X932347Y445494D01*
X932237Y445537D01*
X932128Y445584D01*
X932021Y445634D01*
X931916Y445689D01*
X931813Y445746D01*
X931712Y445807D01*
X931612Y445871D01*
X931515Y445938D01*
X931420Y446008D01*
X931328Y446082D01*
X931237Y446158D01*
X931150Y446238D01*
X931065Y446320D01*
X930983Y446405D01*
X930903Y446492D01*
X930827Y446583D01*
X930753Y446675D01*
X930683Y446770D01*
X930616Y446867D01*
X930552Y446967D01*
X930491Y447068D01*
X930434Y447171D01*
X930379Y447276D01*
X930329Y447383D01*
X930282Y447492D01*
X930239Y447602D01*
X930199Y447713D01*
X930163Y447825D01*
X930130Y447939D01*
X930101Y448054D01*
X930076Y448169D01*
X930055Y448286D01*
X930038Y448403D01*
X930024Y448520D01*
X930015Y448638D01*
X930009Y448756D01*
X930007Y448874D01*
X930007Y450681D01*
X930009Y450799D01*
X930015Y450917D01*
X930024Y451035D01*
X930038Y451152D01*
X930055Y451269D01*
X930076Y451386D01*
X930101Y451501D01*
X930130Y451616D01*
X930163Y451730D01*
X930199Y451842D01*
X930239Y451953D01*
X930282Y452063D01*
X930329Y452172D01*
X930379Y452279D01*
X930434Y452384D01*
X930491Y452487D01*
X930552Y452588D01*
X930616Y452688D01*
X930683Y452785D01*
X930753Y452880D01*
X930827Y452972D01*
X930903Y453063D01*
X930983Y453150D01*
X931065Y453235D01*
X931150Y453317D01*
X931237Y453397D01*
X931328Y453473D01*
X931420Y453547D01*
X931515Y453617D01*
X931612Y453684D01*
X931712Y453748D01*
X931813Y453809D01*
X931916Y453866D01*
X932021Y453921D01*
X932128Y453971D01*
X932237Y454018D01*
X932347Y454061D01*
X932458Y454101D01*
X932570Y454137D01*
X932684Y454170D01*
X932799Y454199D01*
X932914Y454224D01*
X933031Y454245D01*
X933148Y454262D01*
X933265Y454276D01*
X933383Y454285D01*
X933501Y454291D01*
X933619Y454293D01*
X939038Y454293D01*
X939038Y461518D01*
X930007Y461518D01*
X924310Y461518D02*
X918891Y445262D01*
X913473Y461518D01*
X942707Y428893D02*
X945416Y428893D01*
X942707Y428893D02*
X942707Y419862D01*
X948126Y419862D01*
X948244Y419864D01*
X948362Y419870D01*
X948480Y419879D01*
X948597Y419893D01*
X948714Y419910D01*
X948831Y419931D01*
X948946Y419956D01*
X949061Y419985D01*
X949175Y420018D01*
X949287Y420054D01*
X949398Y420094D01*
X949508Y420137D01*
X949617Y420184D01*
X949724Y420234D01*
X949829Y420289D01*
X949932Y420346D01*
X950033Y420407D01*
X950133Y420471D01*
X950230Y420538D01*
X950325Y420608D01*
X950417Y420682D01*
X950508Y420758D01*
X950595Y420838D01*
X950680Y420920D01*
X950762Y421005D01*
X950842Y421092D01*
X950918Y421183D01*
X950992Y421275D01*
X951062Y421370D01*
X951129Y421467D01*
X951193Y421567D01*
X951254Y421668D01*
X951311Y421771D01*
X951366Y421876D01*
X951416Y421983D01*
X951463Y422092D01*
X951506Y422202D01*
X951546Y422313D01*
X951582Y422425D01*
X951615Y422539D01*
X951644Y422654D01*
X951669Y422769D01*
X951690Y422886D01*
X951707Y423003D01*
X951721Y423120D01*
X951730Y423238D01*
X951736Y423356D01*
X951738Y423474D01*
X951738Y432506D01*
X951736Y432624D01*
X951730Y432742D01*
X951721Y432860D01*
X951707Y432977D01*
X951690Y433094D01*
X951669Y433211D01*
X951644Y433326D01*
X951615Y433441D01*
X951582Y433555D01*
X951546Y433667D01*
X951506Y433778D01*
X951463Y433888D01*
X951416Y433997D01*
X951366Y434104D01*
X951311Y434209D01*
X951254Y434312D01*
X951193Y434413D01*
X951129Y434513D01*
X951062Y434610D01*
X950992Y434705D01*
X950918Y434797D01*
X950842Y434888D01*
X950762Y434975D01*
X950680Y435060D01*
X950595Y435142D01*
X950508Y435222D01*
X950417Y435298D01*
X950325Y435372D01*
X950230Y435442D01*
X950133Y435509D01*
X950033Y435573D01*
X949932Y435634D01*
X949829Y435691D01*
X949724Y435746D01*
X949617Y435796D01*
X949508Y435843D01*
X949398Y435886D01*
X949287Y435926D01*
X949175Y435962D01*
X949061Y435995D01*
X948946Y436024D01*
X948831Y436049D01*
X948714Y436070D01*
X948597Y436087D01*
X948480Y436101D01*
X948362Y436110D01*
X948244Y436116D01*
X948126Y436118D01*
X942707Y436118D01*
X935065Y436118D02*
X935065Y419862D01*
X926034Y419862D02*
X935065Y436118D01*
X926034Y436118D02*
X926034Y419862D01*
X918391Y419862D02*
X918391Y436118D01*
X913876Y436118D01*
X913745Y436116D01*
X913613Y436110D01*
X913482Y436101D01*
X913352Y436087D01*
X913221Y436070D01*
X913092Y436049D01*
X912963Y436025D01*
X912835Y435996D01*
X912707Y435964D01*
X912581Y435928D01*
X912456Y435889D01*
X912331Y435846D01*
X912209Y435799D01*
X912087Y435749D01*
X911967Y435695D01*
X911849Y435638D01*
X911733Y435577D01*
X911618Y435513D01*
X911505Y435446D01*
X911394Y435375D01*
X911286Y435301D01*
X911179Y435224D01*
X911075Y435144D01*
X910973Y435061D01*
X910874Y434976D01*
X910777Y434887D01*
X910683Y434795D01*
X910591Y434701D01*
X910502Y434604D01*
X910417Y434505D01*
X910334Y434403D01*
X910254Y434299D01*
X910177Y434192D01*
X910103Y434084D01*
X910032Y433973D01*
X909965Y433860D01*
X909901Y433745D01*
X909840Y433629D01*
X909783Y433511D01*
X909729Y433391D01*
X909679Y433269D01*
X909632Y433147D01*
X909589Y433022D01*
X909550Y432897D01*
X909514Y432771D01*
X909482Y432643D01*
X909453Y432515D01*
X909429Y432386D01*
X909408Y432257D01*
X909391Y432126D01*
X909377Y431996D01*
X909368Y431865D01*
X909362Y431733D01*
X909360Y431602D01*
X909360Y424378D01*
X909362Y424247D01*
X909368Y424115D01*
X909377Y423984D01*
X909391Y423854D01*
X909408Y423723D01*
X909429Y423594D01*
X909453Y423465D01*
X909482Y423337D01*
X909514Y423209D01*
X909550Y423083D01*
X909589Y422958D01*
X909632Y422833D01*
X909679Y422711D01*
X909729Y422589D01*
X909783Y422469D01*
X909840Y422351D01*
X909901Y422235D01*
X909965Y422120D01*
X910032Y422007D01*
X910103Y421896D01*
X910177Y421788D01*
X910254Y421681D01*
X910334Y421577D01*
X910417Y421475D01*
X910502Y421376D01*
X910591Y421279D01*
X910683Y421185D01*
X910777Y421093D01*
X910874Y421004D01*
X910973Y420919D01*
X911075Y420836D01*
X911179Y420756D01*
X911286Y420679D01*
X911394Y420605D01*
X911505Y420534D01*
X911618Y420467D01*
X911733Y420403D01*
X911849Y420342D01*
X911967Y420285D01*
X912087Y420231D01*
X912209Y420181D01*
X912331Y420134D01*
X912456Y420091D01*
X912581Y420052D01*
X912707Y420016D01*
X912835Y419984D01*
X912963Y419955D01*
X913092Y419931D01*
X913221Y419910D01*
X913352Y419893D01*
X913482Y419879D01*
X913613Y419870D01*
X913745Y419864D01*
X913876Y419862D01*
X918391Y419862D01*
X138938Y597662D02*
X133519Y613918D01*
X128101Y597662D01*
X129455Y601726D02*
X137583Y601726D01*
X122403Y605790D02*
X122399Y606110D01*
X122388Y606429D01*
X122369Y606749D01*
X122342Y607067D01*
X122308Y607385D01*
X122266Y607702D01*
X122216Y608018D01*
X122159Y608333D01*
X122095Y608646D01*
X122023Y608958D01*
X121944Y609268D01*
X121857Y609575D01*
X121763Y609881D01*
X121662Y610184D01*
X121553Y610485D01*
X121438Y610783D01*
X121315Y611079D01*
X121185Y611371D01*
X121048Y611660D01*
X121049Y611661D02*
X121010Y611769D01*
X120967Y611876D01*
X120921Y611981D01*
X120870Y612085D01*
X120817Y612187D01*
X120760Y612287D01*
X120699Y612385D01*
X120635Y612480D01*
X120568Y612574D01*
X120497Y612665D01*
X120424Y612754D01*
X120347Y612840D01*
X120268Y612923D01*
X120186Y613004D01*
X120101Y613082D01*
X120013Y613156D01*
X119923Y613228D01*
X119831Y613296D01*
X119736Y613362D01*
X119639Y613424D01*
X119540Y613482D01*
X119438Y613538D01*
X119336Y613589D01*
X119231Y613637D01*
X119125Y613682D01*
X119017Y613723D01*
X118908Y613760D01*
X118798Y613793D01*
X118686Y613822D01*
X118574Y613848D01*
X118461Y613870D01*
X118347Y613887D01*
X118233Y613901D01*
X118118Y613911D01*
X118003Y613917D01*
X117888Y613919D01*
X117888Y613918D02*
X117773Y613916D01*
X117658Y613910D01*
X117543Y613900D01*
X117429Y613886D01*
X117315Y613869D01*
X117202Y613847D01*
X117090Y613821D01*
X116978Y613792D01*
X116868Y613759D01*
X116759Y613722D01*
X116651Y613681D01*
X116545Y613636D01*
X116441Y613588D01*
X116338Y613537D01*
X116237Y613481D01*
X116137Y613423D01*
X116040Y613361D01*
X115946Y613296D01*
X115853Y613227D01*
X115763Y613155D01*
X115675Y613081D01*
X115590Y613003D01*
X115508Y612922D01*
X115429Y612839D01*
X115352Y612753D01*
X115279Y612664D01*
X115208Y612573D01*
X115141Y612479D01*
X115077Y612384D01*
X115016Y612286D01*
X114959Y612186D01*
X114906Y612084D01*
X114855Y611980D01*
X114809Y611875D01*
X114766Y611768D01*
X114727Y611660D01*
X114728Y611660D02*
X114591Y611371D01*
X114461Y611079D01*
X114338Y610783D01*
X114223Y610485D01*
X114114Y610184D01*
X114013Y609881D01*
X113919Y609575D01*
X113832Y609268D01*
X113753Y608958D01*
X113681Y608646D01*
X113617Y608333D01*
X113560Y608018D01*
X113510Y607702D01*
X113468Y607385D01*
X113434Y607067D01*
X113407Y606749D01*
X113388Y606429D01*
X113377Y606110D01*
X113373Y605790D01*
X122403Y605790D02*
X122399Y605470D01*
X122388Y605151D01*
X122369Y604831D01*
X122342Y604513D01*
X122308Y604195D01*
X122266Y603878D01*
X122216Y603562D01*
X122159Y603247D01*
X122095Y602934D01*
X122023Y602622D01*
X121944Y602312D01*
X121857Y602005D01*
X121763Y601699D01*
X121662Y601396D01*
X121553Y601095D01*
X121438Y600797D01*
X121315Y600501D01*
X121185Y600209D01*
X121048Y599920D01*
X121049Y599920D02*
X121010Y599812D01*
X120967Y599705D01*
X120921Y599600D01*
X120870Y599496D01*
X120817Y599394D01*
X120760Y599294D01*
X120699Y599196D01*
X120635Y599101D01*
X120568Y599007D01*
X120497Y598916D01*
X120424Y598827D01*
X120347Y598741D01*
X120268Y598658D01*
X120186Y598577D01*
X120101Y598499D01*
X120013Y598425D01*
X119923Y598353D01*
X119830Y598284D01*
X119736Y598219D01*
X119639Y598157D01*
X119539Y598099D01*
X119438Y598043D01*
X119336Y597992D01*
X119231Y597944D01*
X119125Y597899D01*
X119017Y597858D01*
X118908Y597821D01*
X118798Y597788D01*
X118686Y597759D01*
X118574Y597733D01*
X118461Y597711D01*
X118347Y597694D01*
X118233Y597680D01*
X118118Y597670D01*
X118003Y597664D01*
X117888Y597662D01*
X114728Y599920D02*
X114591Y600209D01*
X114461Y600501D01*
X114338Y600797D01*
X114223Y601095D01*
X114114Y601396D01*
X114013Y601699D01*
X113919Y602005D01*
X113832Y602312D01*
X113753Y602622D01*
X113681Y602934D01*
X113617Y603247D01*
X113560Y603562D01*
X113510Y603878D01*
X113468Y604195D01*
X113434Y604513D01*
X113407Y604831D01*
X113388Y605151D01*
X113377Y605470D01*
X113373Y605790D01*
X114727Y599920D02*
X114766Y599812D01*
X114809Y599705D01*
X114855Y599600D01*
X114906Y599496D01*
X114959Y599394D01*
X115017Y599294D01*
X115077Y599196D01*
X115141Y599101D01*
X115208Y599007D01*
X115279Y598916D01*
X115352Y598827D01*
X115429Y598741D01*
X115508Y598658D01*
X115590Y598577D01*
X115675Y598499D01*
X115763Y598425D01*
X115853Y598353D01*
X115946Y598284D01*
X116040Y598219D01*
X116137Y598157D01*
X116237Y598099D01*
X116338Y598043D01*
X116441Y597992D01*
X116545Y597944D01*
X116651Y597899D01*
X116759Y597858D01*
X116868Y597821D01*
X116978Y597788D01*
X117090Y597759D01*
X117202Y597733D01*
X117315Y597711D01*
X117429Y597694D01*
X117543Y597680D01*
X117658Y597670D01*
X117773Y597664D01*
X117888Y597662D01*
X121501Y601274D02*
X114276Y610306D01*
X133519Y588518D02*
X138938Y572262D01*
X128101Y572262D02*
X133519Y588518D01*
X129455Y576326D02*
X137583Y576326D01*
X122404Y584906D02*
X117888Y588518D01*
X117888Y572262D01*
X113373Y572262D02*
X122404Y572262D01*
X134422Y555893D02*
X138938Y555893D01*
X134422Y555894D02*
X134289Y555892D01*
X134157Y555886D01*
X134025Y555876D01*
X133893Y555863D01*
X133761Y555845D01*
X133631Y555824D01*
X133500Y555799D01*
X133371Y555770D01*
X133243Y555737D01*
X133115Y555701D01*
X132989Y555661D01*
X132864Y555617D01*
X132740Y555569D01*
X132618Y555518D01*
X132497Y555463D01*
X132378Y555405D01*
X132260Y555343D01*
X132145Y555278D01*
X132031Y555209D01*
X131920Y555138D01*
X131811Y555062D01*
X131704Y554984D01*
X131599Y554903D01*
X131497Y554818D01*
X131397Y554731D01*
X131300Y554641D01*
X131205Y554548D01*
X131114Y554452D01*
X131025Y554354D01*
X130939Y554253D01*
X130856Y554149D01*
X130776Y554043D01*
X130700Y553935D01*
X130626Y553825D01*
X130556Y553712D01*
X130489Y553598D01*
X130426Y553481D01*
X130366Y553363D01*
X130309Y553243D01*
X130256Y553121D01*
X130207Y552998D01*
X130161Y552874D01*
X130119Y552748D01*
X130081Y552621D01*
X130046Y552493D01*
X130015Y552364D01*
X129988Y552235D01*
X129965Y552104D01*
X129945Y551973D01*
X129930Y551841D01*
X129918Y551709D01*
X129910Y551577D01*
X129906Y551444D01*
X129906Y551312D01*
X129910Y551179D01*
X129918Y551047D01*
X129930Y550915D01*
X129945Y550783D01*
X129965Y550652D01*
X129988Y550521D01*
X130015Y550392D01*
X130046Y550263D01*
X130081Y550135D01*
X130119Y550008D01*
X130161Y549882D01*
X130207Y549758D01*
X130256Y549635D01*
X130309Y549513D01*
X130366Y549393D01*
X130426Y549275D01*
X130489Y549158D01*
X130556Y549044D01*
X130626Y548931D01*
X130700Y548821D01*
X130776Y548713D01*
X130856Y548607D01*
X130939Y548503D01*
X131025Y548402D01*
X131114Y548304D01*
X131205Y548208D01*
X131300Y548115D01*
X131397Y548025D01*
X131497Y547938D01*
X131599Y547853D01*
X131704Y547772D01*
X131811Y547694D01*
X131920Y547618D01*
X132031Y547547D01*
X132145Y547478D01*
X132260Y547413D01*
X132378Y547351D01*
X132497Y547293D01*
X132618Y547238D01*
X132740Y547187D01*
X132864Y547139D01*
X132989Y547095D01*
X133115Y547055D01*
X133243Y547019D01*
X133371Y546986D01*
X133500Y546957D01*
X133631Y546932D01*
X133761Y546911D01*
X133893Y546893D01*
X134025Y546880D01*
X134157Y546870D01*
X134289Y546864D01*
X134422Y546862D01*
X138938Y546862D01*
X138938Y563118D01*
X134422Y563118D01*
X134303Y563116D01*
X134183Y563110D01*
X134064Y563100D01*
X133946Y563086D01*
X133827Y563069D01*
X133710Y563047D01*
X133593Y563022D01*
X133478Y562992D01*
X133363Y562959D01*
X133249Y562922D01*
X133137Y562882D01*
X133026Y562837D01*
X132917Y562789D01*
X132809Y562738D01*
X132703Y562683D01*
X132599Y562624D01*
X132497Y562562D01*
X132397Y562497D01*
X132299Y562428D01*
X132203Y562356D01*
X132110Y562281D01*
X132020Y562204D01*
X131932Y562123D01*
X131847Y562039D01*
X131765Y561952D01*
X131685Y561863D01*
X131609Y561771D01*
X131535Y561677D01*
X131465Y561580D01*
X131398Y561482D01*
X131334Y561381D01*
X131274Y561277D01*
X131217Y561172D01*
X131164Y561065D01*
X131114Y560957D01*
X131068Y560847D01*
X131026Y560735D01*
X130987Y560622D01*
X130952Y560508D01*
X130921Y560393D01*
X130893Y560276D01*
X130870Y560159D01*
X130850Y560042D01*
X130834Y559923D01*
X130822Y559804D01*
X130814Y559685D01*
X130810Y559566D01*
X130810Y559446D01*
X130814Y559327D01*
X130822Y559208D01*
X130834Y559089D01*
X130850Y558970D01*
X130870Y558853D01*
X130893Y558736D01*
X130921Y558619D01*
X130952Y558504D01*
X130987Y558390D01*
X131026Y558277D01*
X131068Y558165D01*
X131114Y558055D01*
X131164Y557947D01*
X131217Y557840D01*
X131274Y557735D01*
X131334Y557631D01*
X131398Y557530D01*
X131465Y557432D01*
X131535Y557335D01*
X131609Y557241D01*
X131685Y557149D01*
X131765Y557060D01*
X131847Y556973D01*
X131932Y556889D01*
X132020Y556808D01*
X132110Y556731D01*
X132203Y556656D01*
X132299Y556584D01*
X132397Y556515D01*
X132497Y556450D01*
X132599Y556388D01*
X132703Y556329D01*
X132809Y556274D01*
X132917Y556223D01*
X133026Y556175D01*
X133137Y556130D01*
X133249Y556090D01*
X133363Y556053D01*
X133478Y556020D01*
X133593Y555990D01*
X133710Y555965D01*
X133827Y555943D01*
X133946Y555926D01*
X134064Y555912D01*
X134183Y555902D01*
X134303Y555896D01*
X134422Y555894D01*
X119072Y563118D02*
X118947Y563116D01*
X118822Y563110D01*
X118697Y563101D01*
X118573Y563087D01*
X118449Y563070D01*
X118325Y563049D01*
X118203Y563024D01*
X118081Y562995D01*
X117960Y562963D01*
X117840Y562927D01*
X117721Y562887D01*
X117604Y562844D01*
X117488Y562797D01*
X117373Y562746D01*
X117261Y562692D01*
X117149Y562634D01*
X117040Y562574D01*
X116933Y562509D01*
X116827Y562442D01*
X116724Y562371D01*
X116623Y562297D01*
X116524Y562220D01*
X116428Y562140D01*
X116334Y562057D01*
X116243Y561972D01*
X116154Y561883D01*
X116069Y561792D01*
X115986Y561698D01*
X115906Y561602D01*
X115829Y561503D01*
X115755Y561402D01*
X115684Y561299D01*
X115617Y561193D01*
X115552Y561086D01*
X115492Y560977D01*
X115434Y560865D01*
X115380Y560753D01*
X115329Y560638D01*
X115282Y560522D01*
X115239Y560405D01*
X115199Y560286D01*
X115163Y560166D01*
X115131Y560045D01*
X115102Y559923D01*
X115077Y559801D01*
X115056Y559677D01*
X115039Y559553D01*
X115025Y559429D01*
X115016Y559304D01*
X115010Y559179D01*
X115008Y559054D01*
X119072Y563118D02*
X119215Y563116D01*
X119357Y563110D01*
X119500Y563100D01*
X119642Y563087D01*
X119783Y563069D01*
X119925Y563048D01*
X120065Y563023D01*
X120205Y562994D01*
X120344Y562961D01*
X120482Y562924D01*
X120619Y562884D01*
X120754Y562840D01*
X120889Y562792D01*
X121022Y562740D01*
X121154Y562685D01*
X121284Y562626D01*
X121412Y562564D01*
X121539Y562498D01*
X121664Y562429D01*
X121787Y562357D01*
X121908Y562281D01*
X122026Y562202D01*
X122143Y562119D01*
X122257Y562034D01*
X122369Y561945D01*
X122478Y561854D01*
X122585Y561759D01*
X122690Y561662D01*
X122791Y561561D01*
X122890Y561458D01*
X122986Y561353D01*
X123079Y561244D01*
X123169Y561133D01*
X123256Y561020D01*
X123340Y560905D01*
X123420Y560787D01*
X123498Y560667D01*
X123572Y560545D01*
X123642Y560421D01*
X123710Y560295D01*
X123773Y560167D01*
X123834Y560038D01*
X123891Y559907D01*
X123944Y559775D01*
X123993Y559641D01*
X124039Y559506D01*
X116363Y555893D02*
X116269Y555985D01*
X116179Y556079D01*
X116091Y556176D01*
X116006Y556276D01*
X115924Y556378D01*
X115845Y556483D01*
X115770Y556590D01*
X115698Y556699D01*
X115629Y556810D01*
X115563Y556924D01*
X115501Y557039D01*
X115442Y557156D01*
X115387Y557275D01*
X115336Y557395D01*
X115288Y557517D01*
X115243Y557640D01*
X115203Y557764D01*
X115166Y557890D01*
X115133Y558017D01*
X115104Y558144D01*
X115078Y558273D01*
X115057Y558402D01*
X115039Y558532D01*
X115026Y558662D01*
X115016Y558792D01*
X115010Y558923D01*
X115008Y559054D01*
X116362Y555893D02*
X124039Y546862D01*
X115008Y546862D01*
X134422Y530493D02*
X138938Y530493D01*
X134422Y530494D02*
X134289Y530492D01*
X134157Y530486D01*
X134025Y530476D01*
X133893Y530463D01*
X133761Y530445D01*
X133631Y530424D01*
X133500Y530399D01*
X133371Y530370D01*
X133243Y530337D01*
X133115Y530301D01*
X132989Y530261D01*
X132864Y530217D01*
X132740Y530169D01*
X132618Y530118D01*
X132497Y530063D01*
X132378Y530005D01*
X132260Y529943D01*
X132145Y529878D01*
X132031Y529809D01*
X131920Y529738D01*
X131811Y529662D01*
X131704Y529584D01*
X131599Y529503D01*
X131497Y529418D01*
X131397Y529331D01*
X131300Y529241D01*
X131205Y529148D01*
X131114Y529052D01*
X131025Y528954D01*
X130939Y528853D01*
X130856Y528749D01*
X130776Y528643D01*
X130700Y528535D01*
X130626Y528425D01*
X130556Y528312D01*
X130489Y528198D01*
X130426Y528081D01*
X130366Y527963D01*
X130309Y527843D01*
X130256Y527721D01*
X130207Y527598D01*
X130161Y527474D01*
X130119Y527348D01*
X130081Y527221D01*
X130046Y527093D01*
X130015Y526964D01*
X129988Y526835D01*
X129965Y526704D01*
X129945Y526573D01*
X129930Y526441D01*
X129918Y526309D01*
X129910Y526177D01*
X129906Y526044D01*
X129906Y525912D01*
X129910Y525779D01*
X129918Y525647D01*
X129930Y525515D01*
X129945Y525383D01*
X129965Y525252D01*
X129988Y525121D01*
X130015Y524992D01*
X130046Y524863D01*
X130081Y524735D01*
X130119Y524608D01*
X130161Y524482D01*
X130207Y524358D01*
X130256Y524235D01*
X130309Y524113D01*
X130366Y523993D01*
X130426Y523875D01*
X130489Y523758D01*
X130556Y523644D01*
X130626Y523531D01*
X130700Y523421D01*
X130776Y523313D01*
X130856Y523207D01*
X130939Y523103D01*
X131025Y523002D01*
X131114Y522904D01*
X131205Y522808D01*
X131300Y522715D01*
X131397Y522625D01*
X131497Y522538D01*
X131599Y522453D01*
X131704Y522372D01*
X131811Y522294D01*
X131920Y522218D01*
X132031Y522147D01*
X132145Y522078D01*
X132260Y522013D01*
X132378Y521951D01*
X132497Y521893D01*
X132618Y521838D01*
X132740Y521787D01*
X132864Y521739D01*
X132989Y521695D01*
X133115Y521655D01*
X133243Y521619D01*
X133371Y521586D01*
X133500Y521557D01*
X133631Y521532D01*
X133761Y521511D01*
X133893Y521493D01*
X134025Y521480D01*
X134157Y521470D01*
X134289Y521464D01*
X134422Y521462D01*
X138938Y521462D01*
X138938Y537718D01*
X134422Y537718D01*
X134303Y537716D01*
X134183Y537710D01*
X134064Y537700D01*
X133946Y537686D01*
X133827Y537669D01*
X133710Y537647D01*
X133593Y537622D01*
X133478Y537592D01*
X133363Y537559D01*
X133249Y537522D01*
X133137Y537482D01*
X133026Y537437D01*
X132917Y537389D01*
X132809Y537338D01*
X132703Y537283D01*
X132599Y537224D01*
X132497Y537162D01*
X132397Y537097D01*
X132299Y537028D01*
X132203Y536956D01*
X132110Y536881D01*
X132020Y536804D01*
X131932Y536723D01*
X131847Y536639D01*
X131765Y536552D01*
X131685Y536463D01*
X131609Y536371D01*
X131535Y536277D01*
X131465Y536180D01*
X131398Y536082D01*
X131334Y535981D01*
X131274Y535877D01*
X131217Y535772D01*
X131164Y535665D01*
X131114Y535557D01*
X131068Y535447D01*
X131026Y535335D01*
X130987Y535222D01*
X130952Y535108D01*
X130921Y534993D01*
X130893Y534876D01*
X130870Y534759D01*
X130850Y534642D01*
X130834Y534523D01*
X130822Y534404D01*
X130814Y534285D01*
X130810Y534166D01*
X130810Y534046D01*
X130814Y533927D01*
X130822Y533808D01*
X130834Y533689D01*
X130850Y533570D01*
X130870Y533453D01*
X130893Y533336D01*
X130921Y533219D01*
X130952Y533104D01*
X130987Y532990D01*
X131026Y532877D01*
X131068Y532765D01*
X131114Y532655D01*
X131164Y532547D01*
X131217Y532440D01*
X131274Y532335D01*
X131334Y532231D01*
X131398Y532130D01*
X131465Y532032D01*
X131535Y531935D01*
X131609Y531841D01*
X131685Y531749D01*
X131765Y531660D01*
X131847Y531573D01*
X131932Y531489D01*
X132020Y531408D01*
X132110Y531331D01*
X132203Y531256D01*
X132299Y531184D01*
X132397Y531115D01*
X132497Y531050D01*
X132599Y530988D01*
X132703Y530929D01*
X132809Y530874D01*
X132917Y530823D01*
X133026Y530775D01*
X133137Y530730D01*
X133249Y530690D01*
X133363Y530653D01*
X133478Y530620D01*
X133593Y530590D01*
X133710Y530565D01*
X133827Y530543D01*
X133946Y530526D01*
X134064Y530512D01*
X134183Y530502D01*
X134303Y530496D01*
X134422Y530494D01*
X124039Y521462D02*
X119523Y521462D01*
X119390Y521464D01*
X119258Y521470D01*
X119126Y521480D01*
X118994Y521493D01*
X118862Y521511D01*
X118732Y521532D01*
X118601Y521557D01*
X118472Y521586D01*
X118344Y521619D01*
X118216Y521655D01*
X118090Y521695D01*
X117965Y521739D01*
X117841Y521787D01*
X117719Y521838D01*
X117598Y521893D01*
X117479Y521951D01*
X117361Y522013D01*
X117246Y522078D01*
X117132Y522147D01*
X117021Y522218D01*
X116912Y522294D01*
X116805Y522372D01*
X116700Y522453D01*
X116598Y522538D01*
X116498Y522625D01*
X116401Y522715D01*
X116306Y522808D01*
X116215Y522904D01*
X116126Y523002D01*
X116040Y523103D01*
X115957Y523207D01*
X115877Y523313D01*
X115801Y523421D01*
X115727Y523531D01*
X115657Y523644D01*
X115590Y523758D01*
X115527Y523875D01*
X115467Y523993D01*
X115410Y524113D01*
X115357Y524235D01*
X115308Y524358D01*
X115262Y524482D01*
X115220Y524608D01*
X115182Y524735D01*
X115147Y524863D01*
X115116Y524992D01*
X115089Y525121D01*
X115066Y525252D01*
X115046Y525383D01*
X115031Y525515D01*
X115019Y525647D01*
X115011Y525779D01*
X115007Y525912D01*
X115007Y526044D01*
X115011Y526177D01*
X115019Y526309D01*
X115031Y526441D01*
X115046Y526573D01*
X115066Y526704D01*
X115089Y526835D01*
X115116Y526964D01*
X115147Y527093D01*
X115182Y527221D01*
X115220Y527348D01*
X115262Y527474D01*
X115308Y527598D01*
X115357Y527721D01*
X115410Y527843D01*
X115467Y527963D01*
X115527Y528081D01*
X115590Y528198D01*
X115657Y528312D01*
X115727Y528425D01*
X115801Y528535D01*
X115877Y528643D01*
X115957Y528749D01*
X116040Y528853D01*
X116126Y528954D01*
X116215Y529052D01*
X116306Y529148D01*
X116401Y529241D01*
X116498Y529331D01*
X116598Y529418D01*
X116700Y529503D01*
X116805Y529584D01*
X116912Y529662D01*
X117021Y529738D01*
X117132Y529809D01*
X117246Y529878D01*
X117361Y529943D01*
X117479Y530005D01*
X117598Y530063D01*
X117719Y530118D01*
X117841Y530169D01*
X117965Y530217D01*
X118090Y530261D01*
X118216Y530301D01*
X118344Y530337D01*
X118472Y530370D01*
X118601Y530399D01*
X118732Y530424D01*
X118862Y530445D01*
X118994Y530463D01*
X119126Y530476D01*
X119258Y530486D01*
X119390Y530492D01*
X119523Y530494D01*
X118620Y537718D02*
X124039Y537718D01*
X118620Y537718D02*
X118501Y537716D01*
X118381Y537710D01*
X118262Y537700D01*
X118144Y537686D01*
X118025Y537669D01*
X117908Y537647D01*
X117791Y537622D01*
X117676Y537592D01*
X117561Y537559D01*
X117447Y537522D01*
X117335Y537482D01*
X117224Y537437D01*
X117115Y537389D01*
X117007Y537338D01*
X116901Y537283D01*
X116797Y537224D01*
X116695Y537162D01*
X116595Y537097D01*
X116497Y537028D01*
X116401Y536956D01*
X116308Y536881D01*
X116218Y536804D01*
X116130Y536723D01*
X116045Y536639D01*
X115963Y536552D01*
X115883Y536463D01*
X115807Y536371D01*
X115733Y536277D01*
X115663Y536180D01*
X115596Y536082D01*
X115532Y535981D01*
X115472Y535877D01*
X115415Y535772D01*
X115362Y535665D01*
X115312Y535557D01*
X115266Y535447D01*
X115224Y535335D01*
X115185Y535222D01*
X115150Y535108D01*
X115119Y534993D01*
X115091Y534876D01*
X115068Y534759D01*
X115048Y534642D01*
X115032Y534523D01*
X115020Y534404D01*
X115012Y534285D01*
X115008Y534166D01*
X115008Y534046D01*
X115012Y533927D01*
X115020Y533808D01*
X115032Y533689D01*
X115048Y533570D01*
X115068Y533453D01*
X115091Y533336D01*
X115119Y533219D01*
X115150Y533104D01*
X115185Y532990D01*
X115224Y532877D01*
X115266Y532765D01*
X115312Y532655D01*
X115362Y532547D01*
X115415Y532440D01*
X115472Y532335D01*
X115532Y532231D01*
X115596Y532130D01*
X115663Y532032D01*
X115733Y531935D01*
X115807Y531841D01*
X115883Y531749D01*
X115963Y531660D01*
X116045Y531573D01*
X116130Y531489D01*
X116218Y531408D01*
X116308Y531331D01*
X116401Y531256D01*
X116497Y531184D01*
X116595Y531115D01*
X116695Y531050D01*
X116797Y530988D01*
X116901Y530929D01*
X117007Y530874D01*
X117115Y530823D01*
X117224Y530775D01*
X117335Y530730D01*
X117447Y530690D01*
X117561Y530653D01*
X117676Y530620D01*
X117791Y530590D01*
X117908Y530565D01*
X118025Y530543D01*
X118144Y530526D01*
X118262Y530512D01*
X118381Y530502D01*
X118501Y530496D01*
X118620Y530494D01*
X118620Y530493D02*
X122233Y530493D01*
X134422Y505093D02*
X138938Y505093D01*
X134422Y505094D02*
X134289Y505092D01*
X134157Y505086D01*
X134025Y505076D01*
X133893Y505063D01*
X133761Y505045D01*
X133631Y505024D01*
X133500Y504999D01*
X133371Y504970D01*
X133243Y504937D01*
X133115Y504901D01*
X132989Y504861D01*
X132864Y504817D01*
X132740Y504769D01*
X132618Y504718D01*
X132497Y504663D01*
X132378Y504605D01*
X132260Y504543D01*
X132145Y504478D01*
X132031Y504409D01*
X131920Y504338D01*
X131811Y504262D01*
X131704Y504184D01*
X131599Y504103D01*
X131497Y504018D01*
X131397Y503931D01*
X131300Y503841D01*
X131205Y503748D01*
X131114Y503652D01*
X131025Y503554D01*
X130939Y503453D01*
X130856Y503349D01*
X130776Y503243D01*
X130700Y503135D01*
X130626Y503025D01*
X130556Y502912D01*
X130489Y502798D01*
X130426Y502681D01*
X130366Y502563D01*
X130309Y502443D01*
X130256Y502321D01*
X130207Y502198D01*
X130161Y502074D01*
X130119Y501948D01*
X130081Y501821D01*
X130046Y501693D01*
X130015Y501564D01*
X129988Y501435D01*
X129965Y501304D01*
X129945Y501173D01*
X129930Y501041D01*
X129918Y500909D01*
X129910Y500777D01*
X129906Y500644D01*
X129906Y500512D01*
X129910Y500379D01*
X129918Y500247D01*
X129930Y500115D01*
X129945Y499983D01*
X129965Y499852D01*
X129988Y499721D01*
X130015Y499592D01*
X130046Y499463D01*
X130081Y499335D01*
X130119Y499208D01*
X130161Y499082D01*
X130207Y498958D01*
X130256Y498835D01*
X130309Y498713D01*
X130366Y498593D01*
X130426Y498475D01*
X130489Y498358D01*
X130556Y498244D01*
X130626Y498131D01*
X130700Y498021D01*
X130776Y497913D01*
X130856Y497807D01*
X130939Y497703D01*
X131025Y497602D01*
X131114Y497504D01*
X131205Y497408D01*
X131300Y497315D01*
X131397Y497225D01*
X131497Y497138D01*
X131599Y497053D01*
X131704Y496972D01*
X131811Y496894D01*
X131920Y496818D01*
X132031Y496747D01*
X132145Y496678D01*
X132260Y496613D01*
X132378Y496551D01*
X132497Y496493D01*
X132618Y496438D01*
X132740Y496387D01*
X132864Y496339D01*
X132989Y496295D01*
X133115Y496255D01*
X133243Y496219D01*
X133371Y496186D01*
X133500Y496157D01*
X133631Y496132D01*
X133761Y496111D01*
X133893Y496093D01*
X134025Y496080D01*
X134157Y496070D01*
X134289Y496064D01*
X134422Y496062D01*
X138938Y496062D01*
X138938Y512318D01*
X134422Y512318D01*
X134303Y512316D01*
X134183Y512310D01*
X134064Y512300D01*
X133946Y512286D01*
X133827Y512269D01*
X133710Y512247D01*
X133593Y512222D01*
X133478Y512192D01*
X133363Y512159D01*
X133249Y512122D01*
X133137Y512082D01*
X133026Y512037D01*
X132917Y511989D01*
X132809Y511938D01*
X132703Y511883D01*
X132599Y511824D01*
X132497Y511762D01*
X132397Y511697D01*
X132299Y511628D01*
X132203Y511556D01*
X132110Y511481D01*
X132020Y511404D01*
X131932Y511323D01*
X131847Y511239D01*
X131765Y511152D01*
X131685Y511063D01*
X131609Y510971D01*
X131535Y510877D01*
X131465Y510780D01*
X131398Y510682D01*
X131334Y510581D01*
X131274Y510477D01*
X131217Y510372D01*
X131164Y510265D01*
X131114Y510157D01*
X131068Y510047D01*
X131026Y509935D01*
X130987Y509822D01*
X130952Y509708D01*
X130921Y509593D01*
X130893Y509476D01*
X130870Y509359D01*
X130850Y509242D01*
X130834Y509123D01*
X130822Y509004D01*
X130814Y508885D01*
X130810Y508766D01*
X130810Y508646D01*
X130814Y508527D01*
X130822Y508408D01*
X130834Y508289D01*
X130850Y508170D01*
X130870Y508053D01*
X130893Y507936D01*
X130921Y507819D01*
X130952Y507704D01*
X130987Y507590D01*
X131026Y507477D01*
X131068Y507365D01*
X131114Y507255D01*
X131164Y507147D01*
X131217Y507040D01*
X131274Y506935D01*
X131334Y506831D01*
X131398Y506730D01*
X131465Y506632D01*
X131535Y506535D01*
X131609Y506441D01*
X131685Y506349D01*
X131765Y506260D01*
X131847Y506173D01*
X131932Y506089D01*
X132020Y506008D01*
X132110Y505931D01*
X132203Y505856D01*
X132299Y505784D01*
X132397Y505715D01*
X132497Y505650D01*
X132599Y505588D01*
X132703Y505529D01*
X132809Y505474D01*
X132917Y505423D01*
X133026Y505375D01*
X133137Y505330D01*
X133249Y505290D01*
X133363Y505253D01*
X133478Y505220D01*
X133593Y505190D01*
X133710Y505165D01*
X133827Y505143D01*
X133946Y505126D01*
X134064Y505112D01*
X134183Y505102D01*
X134303Y505096D01*
X134422Y505094D01*
X124039Y499674D02*
X120426Y512318D01*
X124039Y499674D02*
X115008Y499674D01*
X117717Y503287D02*
X117717Y496062D01*
X109068Y494256D02*
X101843Y514124D01*
X95382Y512318D02*
X95382Y500578D01*
X95380Y500445D01*
X95374Y500313D01*
X95364Y500181D01*
X95351Y500049D01*
X95333Y499917D01*
X95312Y499787D01*
X95287Y499656D01*
X95258Y499527D01*
X95225Y499399D01*
X95189Y499271D01*
X95149Y499145D01*
X95105Y499020D01*
X95057Y498896D01*
X95006Y498774D01*
X94951Y498653D01*
X94893Y498534D01*
X94831Y498416D01*
X94766Y498301D01*
X94697Y498187D01*
X94626Y498076D01*
X94550Y497967D01*
X94472Y497860D01*
X94391Y497755D01*
X94306Y497653D01*
X94219Y497553D01*
X94129Y497456D01*
X94036Y497361D01*
X93940Y497270D01*
X93842Y497181D01*
X93741Y497095D01*
X93637Y497012D01*
X93531Y496932D01*
X93423Y496856D01*
X93313Y496782D01*
X93200Y496712D01*
X93086Y496645D01*
X92969Y496582D01*
X92851Y496522D01*
X92731Y496465D01*
X92609Y496412D01*
X92486Y496363D01*
X92362Y496317D01*
X92236Y496275D01*
X92109Y496237D01*
X91981Y496202D01*
X91852Y496171D01*
X91723Y496144D01*
X91592Y496121D01*
X91461Y496101D01*
X91329Y496086D01*
X91197Y496074D01*
X91065Y496066D01*
X90932Y496062D01*
X90800Y496062D01*
X90667Y496066D01*
X90535Y496074D01*
X90403Y496086D01*
X90271Y496101D01*
X90140Y496121D01*
X90009Y496144D01*
X89880Y496171D01*
X89751Y496202D01*
X89623Y496237D01*
X89496Y496275D01*
X89370Y496317D01*
X89246Y496363D01*
X89123Y496412D01*
X89001Y496465D01*
X88881Y496522D01*
X88763Y496582D01*
X88646Y496645D01*
X88532Y496712D01*
X88419Y496782D01*
X88309Y496856D01*
X88201Y496932D01*
X88095Y497012D01*
X87991Y497095D01*
X87890Y497181D01*
X87792Y497270D01*
X87696Y497361D01*
X87603Y497456D01*
X87513Y497553D01*
X87426Y497653D01*
X87341Y497755D01*
X87260Y497860D01*
X87182Y497967D01*
X87106Y498076D01*
X87035Y498187D01*
X86966Y498301D01*
X86901Y498416D01*
X86839Y498534D01*
X86781Y498653D01*
X86726Y498774D01*
X86675Y498896D01*
X86627Y499020D01*
X86583Y499145D01*
X86543Y499271D01*
X86507Y499399D01*
X86474Y499527D01*
X86445Y499656D01*
X86420Y499787D01*
X86399Y499917D01*
X86381Y500049D01*
X86368Y500181D01*
X86358Y500313D01*
X86352Y500445D01*
X86350Y500578D01*
X86350Y512318D01*
X70720Y499674D02*
X70722Y499556D01*
X70728Y499438D01*
X70737Y499320D01*
X70751Y499203D01*
X70768Y499086D01*
X70789Y498969D01*
X70814Y498854D01*
X70843Y498739D01*
X70876Y498625D01*
X70912Y498513D01*
X70952Y498402D01*
X70995Y498292D01*
X71042Y498183D01*
X71092Y498076D01*
X71147Y497971D01*
X71204Y497868D01*
X71265Y497767D01*
X71329Y497667D01*
X71396Y497570D01*
X71466Y497475D01*
X71540Y497383D01*
X71616Y497292D01*
X71696Y497205D01*
X71778Y497120D01*
X71863Y497038D01*
X71950Y496958D01*
X72041Y496882D01*
X72133Y496808D01*
X72228Y496738D01*
X72325Y496671D01*
X72425Y496607D01*
X72526Y496546D01*
X72629Y496489D01*
X72734Y496434D01*
X72841Y496384D01*
X72950Y496337D01*
X73060Y496294D01*
X73171Y496254D01*
X73283Y496218D01*
X73397Y496185D01*
X73512Y496156D01*
X73627Y496131D01*
X73744Y496110D01*
X73861Y496093D01*
X73978Y496079D01*
X74096Y496070D01*
X74214Y496064D01*
X74332Y496062D01*
X74515Y496064D01*
X74697Y496071D01*
X74879Y496082D01*
X75061Y496097D01*
X75243Y496117D01*
X75424Y496141D01*
X75604Y496169D01*
X75784Y496201D01*
X75963Y496238D01*
X76140Y496279D01*
X76317Y496325D01*
X76493Y496374D01*
X76668Y496428D01*
X76841Y496486D01*
X77012Y496548D01*
X77183Y496614D01*
X77351Y496685D01*
X77518Y496759D01*
X77683Y496837D01*
X77846Y496919D01*
X78007Y497005D01*
X78166Y497095D01*
X78323Y497189D01*
X78477Y497286D01*
X78629Y497387D01*
X78779Y497492D01*
X78926Y497600D01*
X79070Y497711D01*
X79212Y497826D01*
X79351Y497945D01*
X79487Y498067D01*
X79620Y498192D01*
X79750Y498320D01*
X79298Y508706D02*
X79296Y508824D01*
X79290Y508942D01*
X79281Y509060D01*
X79267Y509177D01*
X79250Y509294D01*
X79229Y509411D01*
X79204Y509526D01*
X79175Y509641D01*
X79142Y509755D01*
X79106Y509867D01*
X79066Y509978D01*
X79023Y510088D01*
X78976Y510197D01*
X78926Y510304D01*
X78871Y510409D01*
X78814Y510512D01*
X78753Y510613D01*
X78689Y510713D01*
X78622Y510810D01*
X78552Y510905D01*
X78478Y510997D01*
X78402Y511088D01*
X78322Y511175D01*
X78240Y511260D01*
X78155Y511342D01*
X78068Y511422D01*
X77977Y511498D01*
X77885Y511572D01*
X77790Y511642D01*
X77693Y511709D01*
X77593Y511773D01*
X77492Y511834D01*
X77389Y511891D01*
X77284Y511946D01*
X77177Y511996D01*
X77068Y512043D01*
X76958Y512086D01*
X76847Y512126D01*
X76735Y512162D01*
X76621Y512195D01*
X76506Y512224D01*
X76391Y512249D01*
X76274Y512270D01*
X76157Y512287D01*
X76040Y512301D01*
X75922Y512310D01*
X75804Y512316D01*
X75686Y512318D01*
X75525Y512316D01*
X75363Y512310D01*
X75202Y512301D01*
X75041Y512287D01*
X74881Y512270D01*
X74721Y512249D01*
X74561Y512224D01*
X74402Y512195D01*
X74244Y512163D01*
X74087Y512127D01*
X73931Y512087D01*
X73775Y512043D01*
X73621Y511995D01*
X73468Y511944D01*
X73316Y511890D01*
X73165Y511831D01*
X73016Y511770D01*
X72869Y511704D01*
X72723Y511635D01*
X72578Y511563D01*
X72436Y511487D01*
X72295Y511408D01*
X72156Y511326D01*
X72020Y511240D01*
X71885Y511151D01*
X71752Y511059D01*
X71622Y510963D01*
X77493Y505545D02*
X77594Y505607D01*
X77694Y505672D01*
X77791Y505741D01*
X77886Y505813D01*
X77979Y505887D01*
X78069Y505965D01*
X78157Y506046D01*
X78242Y506129D01*
X78324Y506215D01*
X78403Y506304D01*
X78480Y506395D01*
X78553Y506489D01*
X78624Y506585D01*
X78691Y506683D01*
X78755Y506783D01*
X78816Y506886D01*
X78873Y506990D01*
X78927Y507096D01*
X78977Y507204D01*
X79024Y507313D01*
X79068Y507424D01*
X79108Y507536D01*
X79144Y507650D01*
X79176Y507764D01*
X79205Y507880D01*
X79230Y507996D01*
X79251Y508113D01*
X79268Y508231D01*
X79282Y508349D01*
X79291Y508468D01*
X79297Y508587D01*
X79299Y508706D01*
X72525Y502835D02*
X72424Y502773D01*
X72324Y502708D01*
X72227Y502639D01*
X72132Y502567D01*
X72039Y502493D01*
X71949Y502415D01*
X71861Y502334D01*
X71776Y502251D01*
X71694Y502165D01*
X71615Y502076D01*
X71538Y501985D01*
X71465Y501891D01*
X71394Y501795D01*
X71327Y501697D01*
X71263Y501597D01*
X71202Y501494D01*
X71145Y501390D01*
X71091Y501284D01*
X71041Y501176D01*
X70994Y501067D01*
X70950Y500956D01*
X70910Y500844D01*
X70874Y500730D01*
X70842Y500616D01*
X70813Y500500D01*
X70788Y500384D01*
X70767Y500267D01*
X70750Y500149D01*
X70736Y500031D01*
X70727Y499912D01*
X70721Y499793D01*
X70719Y499674D01*
X72525Y502835D02*
X77493Y505545D01*
X64089Y496062D02*
X56864Y496062D01*
X64089Y496062D02*
X64089Y512318D01*
X56864Y512318D01*
X58671Y505093D02*
X64089Y505093D01*
X50480Y512318D02*
X50480Y496062D01*
X50480Y512318D02*
X45965Y512318D01*
X45832Y512316D01*
X45700Y512310D01*
X45568Y512300D01*
X45436Y512287D01*
X45304Y512269D01*
X45174Y512248D01*
X45043Y512223D01*
X44914Y512194D01*
X44786Y512161D01*
X44658Y512125D01*
X44532Y512085D01*
X44407Y512041D01*
X44283Y511993D01*
X44161Y511942D01*
X44040Y511887D01*
X43921Y511829D01*
X43803Y511767D01*
X43688Y511702D01*
X43574Y511633D01*
X43463Y511562D01*
X43354Y511486D01*
X43247Y511408D01*
X43142Y511327D01*
X43040Y511242D01*
X42940Y511155D01*
X42843Y511065D01*
X42748Y510972D01*
X42657Y510876D01*
X42568Y510778D01*
X42482Y510677D01*
X42399Y510573D01*
X42319Y510467D01*
X42243Y510359D01*
X42169Y510249D01*
X42099Y510136D01*
X42032Y510022D01*
X41969Y509905D01*
X41909Y509787D01*
X41852Y509667D01*
X41799Y509545D01*
X41750Y509422D01*
X41704Y509298D01*
X41662Y509172D01*
X41624Y509045D01*
X41589Y508917D01*
X41558Y508788D01*
X41531Y508659D01*
X41508Y508528D01*
X41488Y508397D01*
X41473Y508265D01*
X41461Y508133D01*
X41453Y508001D01*
X41449Y507868D01*
X41449Y507736D01*
X41453Y507603D01*
X41461Y507471D01*
X41473Y507339D01*
X41488Y507207D01*
X41508Y507076D01*
X41531Y506945D01*
X41558Y506816D01*
X41589Y506687D01*
X41624Y506559D01*
X41662Y506432D01*
X41704Y506306D01*
X41750Y506182D01*
X41799Y506059D01*
X41852Y505937D01*
X41909Y505817D01*
X41969Y505699D01*
X42032Y505582D01*
X42099Y505468D01*
X42169Y505355D01*
X42243Y505245D01*
X42319Y505137D01*
X42399Y505031D01*
X42482Y504927D01*
X42568Y504826D01*
X42657Y504728D01*
X42748Y504632D01*
X42843Y504539D01*
X42940Y504449D01*
X43040Y504362D01*
X43142Y504277D01*
X43247Y504196D01*
X43354Y504118D01*
X43463Y504042D01*
X43574Y503971D01*
X43688Y503902D01*
X43803Y503837D01*
X43921Y503775D01*
X44040Y503717D01*
X44161Y503662D01*
X44283Y503611D01*
X44407Y503563D01*
X44532Y503519D01*
X44658Y503479D01*
X44786Y503443D01*
X44914Y503410D01*
X45043Y503381D01*
X45174Y503356D01*
X45304Y503335D01*
X45436Y503317D01*
X45568Y503304D01*
X45700Y503294D01*
X45832Y503288D01*
X45965Y503286D01*
X45965Y503287D02*
X50480Y503287D01*
X45062Y503287D02*
X41449Y496062D01*
X133519Y486918D02*
X138938Y470662D01*
X128101Y470662D02*
X133519Y486918D01*
X129455Y474726D02*
X137583Y474726D01*
X122404Y474274D02*
X118791Y486918D01*
X122404Y474274D02*
X113373Y474274D01*
X116082Y477887D02*
X116082Y470662D01*
X107432Y468856D02*
X100208Y488724D01*
X93717Y486918D02*
X93717Y470662D01*
X86492Y470662D01*
X80170Y470662D02*
X72945Y470662D01*
X80170Y470662D02*
X80170Y486918D01*
X72945Y486918D01*
X74751Y479693D02*
X80170Y479693D01*
X66652Y486918D02*
X66652Y470662D01*
X66652Y486918D02*
X62137Y486918D01*
X62006Y486916D01*
X61874Y486910D01*
X61743Y486901D01*
X61613Y486887D01*
X61482Y486870D01*
X61353Y486849D01*
X61224Y486825D01*
X61096Y486796D01*
X60968Y486764D01*
X60842Y486728D01*
X60717Y486689D01*
X60592Y486646D01*
X60470Y486599D01*
X60348Y486549D01*
X60228Y486495D01*
X60110Y486438D01*
X59994Y486377D01*
X59879Y486313D01*
X59766Y486246D01*
X59655Y486175D01*
X59547Y486101D01*
X59440Y486024D01*
X59336Y485944D01*
X59234Y485861D01*
X59135Y485776D01*
X59038Y485687D01*
X58944Y485595D01*
X58852Y485501D01*
X58763Y485404D01*
X58678Y485305D01*
X58595Y485203D01*
X58515Y485099D01*
X58438Y484992D01*
X58364Y484884D01*
X58293Y484773D01*
X58226Y484660D01*
X58162Y484545D01*
X58101Y484429D01*
X58044Y484311D01*
X57990Y484191D01*
X57940Y484069D01*
X57893Y483947D01*
X57850Y483822D01*
X57811Y483697D01*
X57775Y483571D01*
X57743Y483443D01*
X57714Y483315D01*
X57690Y483186D01*
X57669Y483057D01*
X57652Y482926D01*
X57638Y482796D01*
X57629Y482665D01*
X57623Y482533D01*
X57621Y482402D01*
X57621Y475178D01*
X57623Y475047D01*
X57629Y474915D01*
X57638Y474784D01*
X57652Y474654D01*
X57669Y474523D01*
X57690Y474394D01*
X57714Y474265D01*
X57743Y474137D01*
X57775Y474009D01*
X57811Y473883D01*
X57850Y473758D01*
X57893Y473633D01*
X57940Y473511D01*
X57990Y473389D01*
X58044Y473269D01*
X58101Y473151D01*
X58162Y473035D01*
X58226Y472920D01*
X58293Y472807D01*
X58364Y472696D01*
X58438Y472588D01*
X58515Y472481D01*
X58595Y472377D01*
X58678Y472275D01*
X58763Y472176D01*
X58852Y472079D01*
X58944Y471985D01*
X59038Y471893D01*
X59135Y471804D01*
X59234Y471719D01*
X59336Y471636D01*
X59440Y471556D01*
X59547Y471479D01*
X59655Y471405D01*
X59766Y471334D01*
X59879Y471267D01*
X59994Y471203D01*
X60110Y471142D01*
X60228Y471085D01*
X60348Y471031D01*
X60470Y470981D01*
X60592Y470934D01*
X60717Y470891D01*
X60842Y470852D01*
X60968Y470816D01*
X61096Y470784D01*
X61224Y470755D01*
X61353Y470731D01*
X61482Y470710D01*
X61613Y470693D01*
X61743Y470679D01*
X61874Y470670D01*
X62006Y470664D01*
X62137Y470662D01*
X66652Y470662D01*
X128101Y451584D02*
X138938Y451584D01*
X133519Y457002D02*
X133519Y446165D01*
X121362Y445262D02*
X116846Y445262D01*
X116713Y445264D01*
X116581Y445270D01*
X116449Y445280D01*
X116317Y445293D01*
X116185Y445311D01*
X116055Y445332D01*
X115924Y445357D01*
X115795Y445386D01*
X115667Y445419D01*
X115539Y445455D01*
X115413Y445495D01*
X115288Y445539D01*
X115164Y445587D01*
X115042Y445638D01*
X114921Y445693D01*
X114802Y445751D01*
X114684Y445813D01*
X114569Y445878D01*
X114455Y445947D01*
X114344Y446018D01*
X114235Y446094D01*
X114128Y446172D01*
X114023Y446253D01*
X113921Y446338D01*
X113821Y446425D01*
X113724Y446515D01*
X113629Y446608D01*
X113538Y446704D01*
X113449Y446802D01*
X113363Y446903D01*
X113280Y447007D01*
X113200Y447113D01*
X113124Y447221D01*
X113050Y447331D01*
X112980Y447444D01*
X112913Y447558D01*
X112850Y447675D01*
X112790Y447793D01*
X112733Y447913D01*
X112680Y448035D01*
X112631Y448158D01*
X112585Y448282D01*
X112543Y448408D01*
X112505Y448535D01*
X112470Y448663D01*
X112439Y448792D01*
X112412Y448921D01*
X112389Y449052D01*
X112369Y449183D01*
X112354Y449315D01*
X112342Y449447D01*
X112334Y449579D01*
X112330Y449712D01*
X112330Y449844D01*
X112334Y449977D01*
X112342Y450109D01*
X112354Y450241D01*
X112369Y450373D01*
X112389Y450504D01*
X112412Y450635D01*
X112439Y450764D01*
X112470Y450893D01*
X112505Y451021D01*
X112543Y451148D01*
X112585Y451274D01*
X112631Y451398D01*
X112680Y451521D01*
X112733Y451643D01*
X112790Y451763D01*
X112850Y451881D01*
X112913Y451998D01*
X112980Y452112D01*
X113050Y452225D01*
X113124Y452335D01*
X113200Y452443D01*
X113280Y452549D01*
X113363Y452653D01*
X113449Y452754D01*
X113538Y452852D01*
X113629Y452948D01*
X113724Y453041D01*
X113821Y453131D01*
X113921Y453218D01*
X114023Y453303D01*
X114128Y453384D01*
X114235Y453462D01*
X114344Y453538D01*
X114455Y453609D01*
X114569Y453678D01*
X114684Y453743D01*
X114802Y453805D01*
X114921Y453863D01*
X115042Y453918D01*
X115164Y453969D01*
X115288Y454017D01*
X115413Y454061D01*
X115539Y454101D01*
X115667Y454137D01*
X115795Y454170D01*
X115924Y454199D01*
X116055Y454224D01*
X116185Y454245D01*
X116317Y454263D01*
X116449Y454276D01*
X116581Y454286D01*
X116713Y454292D01*
X116846Y454294D01*
X115943Y461518D02*
X121362Y461518D01*
X115943Y461518D02*
X115824Y461516D01*
X115704Y461510D01*
X115585Y461500D01*
X115467Y461486D01*
X115348Y461469D01*
X115231Y461447D01*
X115114Y461422D01*
X114999Y461392D01*
X114884Y461359D01*
X114770Y461322D01*
X114658Y461282D01*
X114547Y461237D01*
X114438Y461189D01*
X114330Y461138D01*
X114224Y461083D01*
X114120Y461024D01*
X114018Y460962D01*
X113918Y460897D01*
X113820Y460828D01*
X113724Y460756D01*
X113631Y460681D01*
X113541Y460604D01*
X113453Y460523D01*
X113368Y460439D01*
X113286Y460352D01*
X113206Y460263D01*
X113130Y460171D01*
X113056Y460077D01*
X112986Y459980D01*
X112919Y459882D01*
X112855Y459781D01*
X112795Y459677D01*
X112738Y459572D01*
X112685Y459465D01*
X112635Y459357D01*
X112589Y459247D01*
X112547Y459135D01*
X112508Y459022D01*
X112473Y458908D01*
X112442Y458793D01*
X112414Y458676D01*
X112391Y458559D01*
X112371Y458442D01*
X112355Y458323D01*
X112343Y458204D01*
X112335Y458085D01*
X112331Y457966D01*
X112331Y457846D01*
X112335Y457727D01*
X112343Y457608D01*
X112355Y457489D01*
X112371Y457370D01*
X112391Y457253D01*
X112414Y457136D01*
X112442Y457019D01*
X112473Y456904D01*
X112508Y456790D01*
X112547Y456677D01*
X112589Y456565D01*
X112635Y456455D01*
X112685Y456347D01*
X112738Y456240D01*
X112795Y456135D01*
X112855Y456031D01*
X112919Y455930D01*
X112986Y455832D01*
X113056Y455735D01*
X113130Y455641D01*
X113206Y455549D01*
X113286Y455460D01*
X113368Y455373D01*
X113453Y455289D01*
X113541Y455208D01*
X113631Y455131D01*
X113724Y455056D01*
X113820Y454984D01*
X113918Y454915D01*
X114018Y454850D01*
X114120Y454788D01*
X114224Y454729D01*
X114330Y454674D01*
X114438Y454623D01*
X114547Y454575D01*
X114658Y454530D01*
X114770Y454490D01*
X114884Y454453D01*
X114999Y454420D01*
X115114Y454390D01*
X115231Y454365D01*
X115348Y454343D01*
X115467Y454326D01*
X115585Y454312D01*
X115704Y454302D01*
X115824Y454296D01*
X115943Y454294D01*
X115943Y454293D02*
X119555Y454293D01*
X106633Y461518D02*
X101215Y445262D01*
X95796Y461518D01*
X90099Y445262D02*
X85584Y445262D01*
X85451Y445264D01*
X85319Y445270D01*
X85187Y445280D01*
X85055Y445293D01*
X84923Y445311D01*
X84793Y445332D01*
X84662Y445357D01*
X84533Y445386D01*
X84405Y445419D01*
X84277Y445455D01*
X84151Y445495D01*
X84026Y445539D01*
X83902Y445587D01*
X83780Y445638D01*
X83659Y445693D01*
X83540Y445751D01*
X83422Y445813D01*
X83307Y445878D01*
X83193Y445947D01*
X83082Y446018D01*
X82973Y446094D01*
X82866Y446172D01*
X82761Y446253D01*
X82659Y446338D01*
X82559Y446425D01*
X82462Y446515D01*
X82367Y446608D01*
X82276Y446704D01*
X82187Y446802D01*
X82101Y446903D01*
X82018Y447007D01*
X81938Y447113D01*
X81862Y447221D01*
X81788Y447331D01*
X81718Y447444D01*
X81651Y447558D01*
X81588Y447675D01*
X81528Y447793D01*
X81471Y447913D01*
X81418Y448035D01*
X81369Y448158D01*
X81323Y448282D01*
X81281Y448408D01*
X81243Y448535D01*
X81208Y448663D01*
X81177Y448792D01*
X81150Y448921D01*
X81127Y449052D01*
X81107Y449183D01*
X81092Y449315D01*
X81080Y449447D01*
X81072Y449579D01*
X81068Y449712D01*
X81068Y449844D01*
X81072Y449977D01*
X81080Y450109D01*
X81092Y450241D01*
X81107Y450373D01*
X81127Y450504D01*
X81150Y450635D01*
X81177Y450764D01*
X81208Y450893D01*
X81243Y451021D01*
X81281Y451148D01*
X81323Y451274D01*
X81369Y451398D01*
X81418Y451521D01*
X81471Y451643D01*
X81528Y451763D01*
X81588Y451881D01*
X81651Y451998D01*
X81718Y452112D01*
X81788Y452225D01*
X81862Y452335D01*
X81938Y452443D01*
X82018Y452549D01*
X82101Y452653D01*
X82187Y452754D01*
X82276Y452852D01*
X82367Y452948D01*
X82462Y453041D01*
X82559Y453131D01*
X82659Y453218D01*
X82761Y453303D01*
X82866Y453384D01*
X82973Y453462D01*
X83082Y453538D01*
X83193Y453609D01*
X83307Y453678D01*
X83422Y453743D01*
X83540Y453805D01*
X83659Y453863D01*
X83780Y453918D01*
X83902Y453969D01*
X84026Y454017D01*
X84151Y454061D01*
X84277Y454101D01*
X84405Y454137D01*
X84533Y454170D01*
X84662Y454199D01*
X84793Y454224D01*
X84923Y454245D01*
X85055Y454263D01*
X85187Y454276D01*
X85319Y454286D01*
X85451Y454292D01*
X85584Y454294D01*
X84680Y461518D02*
X90099Y461518D01*
X84680Y461518D02*
X84561Y461516D01*
X84441Y461510D01*
X84322Y461500D01*
X84204Y461486D01*
X84085Y461469D01*
X83968Y461447D01*
X83851Y461422D01*
X83736Y461392D01*
X83621Y461359D01*
X83507Y461322D01*
X83395Y461282D01*
X83284Y461237D01*
X83175Y461189D01*
X83067Y461138D01*
X82961Y461083D01*
X82857Y461024D01*
X82755Y460962D01*
X82655Y460897D01*
X82557Y460828D01*
X82461Y460756D01*
X82368Y460681D01*
X82278Y460604D01*
X82190Y460523D01*
X82105Y460439D01*
X82023Y460352D01*
X81943Y460263D01*
X81867Y460171D01*
X81793Y460077D01*
X81723Y459980D01*
X81656Y459882D01*
X81592Y459781D01*
X81532Y459677D01*
X81475Y459572D01*
X81422Y459465D01*
X81372Y459357D01*
X81326Y459247D01*
X81284Y459135D01*
X81245Y459022D01*
X81210Y458908D01*
X81179Y458793D01*
X81151Y458676D01*
X81128Y458559D01*
X81108Y458442D01*
X81092Y458323D01*
X81080Y458204D01*
X81072Y458085D01*
X81068Y457966D01*
X81068Y457846D01*
X81072Y457727D01*
X81080Y457608D01*
X81092Y457489D01*
X81108Y457370D01*
X81128Y457253D01*
X81151Y457136D01*
X81179Y457019D01*
X81210Y456904D01*
X81245Y456790D01*
X81284Y456677D01*
X81326Y456565D01*
X81372Y456455D01*
X81422Y456347D01*
X81475Y456240D01*
X81532Y456135D01*
X81592Y456031D01*
X81656Y455930D01*
X81723Y455832D01*
X81793Y455735D01*
X81867Y455641D01*
X81943Y455549D01*
X82023Y455460D01*
X82105Y455373D01*
X82190Y455289D01*
X82278Y455208D01*
X82368Y455131D01*
X82461Y455056D01*
X82557Y454984D01*
X82655Y454915D01*
X82755Y454850D01*
X82857Y454788D01*
X82961Y454729D01*
X83067Y454674D01*
X83175Y454623D01*
X83284Y454575D01*
X83395Y454530D01*
X83507Y454490D01*
X83621Y454453D01*
X83736Y454420D01*
X83851Y454390D01*
X83968Y454365D01*
X84085Y454343D01*
X84204Y454326D01*
X84322Y454312D01*
X84441Y454302D01*
X84561Y454296D01*
X84680Y454294D01*
X84680Y454293D02*
X88293Y454293D01*
X129907Y428893D02*
X132616Y428893D01*
X129907Y428893D02*
X129907Y419862D01*
X135326Y419862D01*
X135444Y419864D01*
X135562Y419870D01*
X135680Y419879D01*
X135797Y419893D01*
X135914Y419910D01*
X136031Y419931D01*
X136146Y419956D01*
X136261Y419985D01*
X136375Y420018D01*
X136487Y420054D01*
X136598Y420094D01*
X136708Y420137D01*
X136817Y420184D01*
X136924Y420234D01*
X137029Y420289D01*
X137132Y420346D01*
X137233Y420407D01*
X137333Y420471D01*
X137430Y420538D01*
X137525Y420608D01*
X137617Y420682D01*
X137708Y420758D01*
X137795Y420838D01*
X137880Y420920D01*
X137962Y421005D01*
X138042Y421092D01*
X138118Y421183D01*
X138192Y421275D01*
X138262Y421370D01*
X138329Y421467D01*
X138393Y421567D01*
X138454Y421668D01*
X138511Y421771D01*
X138566Y421876D01*
X138616Y421983D01*
X138663Y422092D01*
X138706Y422202D01*
X138746Y422313D01*
X138782Y422425D01*
X138815Y422539D01*
X138844Y422654D01*
X138869Y422769D01*
X138890Y422886D01*
X138907Y423003D01*
X138921Y423120D01*
X138930Y423238D01*
X138936Y423356D01*
X138938Y423474D01*
X138938Y432506D01*
X138936Y432624D01*
X138930Y432742D01*
X138921Y432860D01*
X138907Y432977D01*
X138890Y433094D01*
X138869Y433211D01*
X138844Y433326D01*
X138815Y433441D01*
X138782Y433555D01*
X138746Y433667D01*
X138706Y433778D01*
X138663Y433888D01*
X138616Y433997D01*
X138566Y434104D01*
X138511Y434209D01*
X138454Y434312D01*
X138393Y434413D01*
X138329Y434513D01*
X138262Y434610D01*
X138192Y434705D01*
X138118Y434797D01*
X138042Y434888D01*
X137962Y434975D01*
X137880Y435060D01*
X137795Y435142D01*
X137708Y435222D01*
X137617Y435298D01*
X137525Y435372D01*
X137430Y435442D01*
X137333Y435509D01*
X137233Y435573D01*
X137132Y435634D01*
X137029Y435691D01*
X136924Y435746D01*
X136817Y435796D01*
X136708Y435843D01*
X136598Y435886D01*
X136487Y435926D01*
X136375Y435962D01*
X136261Y435995D01*
X136146Y436024D01*
X136031Y436049D01*
X135914Y436070D01*
X135797Y436087D01*
X135680Y436101D01*
X135562Y436110D01*
X135444Y436116D01*
X135326Y436118D01*
X129907Y436118D01*
X122265Y436118D02*
X122265Y419862D01*
X113234Y419862D02*
X122265Y436118D01*
X113234Y436118D02*
X113234Y419862D01*
X105591Y419862D02*
X105591Y436118D01*
X101076Y436118D01*
X100945Y436116D01*
X100813Y436110D01*
X100682Y436101D01*
X100552Y436087D01*
X100421Y436070D01*
X100292Y436049D01*
X100163Y436025D01*
X100035Y435996D01*
X99907Y435964D01*
X99781Y435928D01*
X99656Y435889D01*
X99531Y435846D01*
X99409Y435799D01*
X99287Y435749D01*
X99167Y435695D01*
X99049Y435638D01*
X98933Y435577D01*
X98818Y435513D01*
X98705Y435446D01*
X98594Y435375D01*
X98486Y435301D01*
X98379Y435224D01*
X98275Y435144D01*
X98173Y435061D01*
X98074Y434976D01*
X97977Y434887D01*
X97883Y434795D01*
X97791Y434701D01*
X97702Y434604D01*
X97617Y434505D01*
X97534Y434403D01*
X97454Y434299D01*
X97377Y434192D01*
X97303Y434084D01*
X97232Y433973D01*
X97165Y433860D01*
X97101Y433745D01*
X97040Y433629D01*
X96983Y433511D01*
X96929Y433391D01*
X96879Y433269D01*
X96832Y433147D01*
X96789Y433022D01*
X96750Y432897D01*
X96714Y432771D01*
X96682Y432643D01*
X96653Y432515D01*
X96629Y432386D01*
X96608Y432257D01*
X96591Y432126D01*
X96577Y431996D01*
X96568Y431865D01*
X96562Y431733D01*
X96560Y431602D01*
X96560Y424378D01*
X96562Y424247D01*
X96568Y424115D01*
X96577Y423984D01*
X96591Y423854D01*
X96608Y423723D01*
X96629Y423594D01*
X96653Y423465D01*
X96682Y423337D01*
X96714Y423209D01*
X96750Y423083D01*
X96789Y422958D01*
X96832Y422833D01*
X96879Y422711D01*
X96929Y422589D01*
X96983Y422469D01*
X97040Y422351D01*
X97101Y422235D01*
X97165Y422120D01*
X97232Y422007D01*
X97303Y421896D01*
X97377Y421788D01*
X97454Y421681D01*
X97534Y421577D01*
X97617Y421475D01*
X97702Y421376D01*
X97791Y421279D01*
X97883Y421185D01*
X97977Y421093D01*
X98074Y421004D01*
X98173Y420919D01*
X98275Y420836D01*
X98379Y420756D01*
X98486Y420679D01*
X98594Y420605D01*
X98705Y420534D01*
X98818Y420467D01*
X98933Y420403D01*
X99049Y420342D01*
X99167Y420285D01*
X99287Y420231D01*
X99409Y420181D01*
X99531Y420134D01*
X99656Y420091D01*
X99781Y420052D01*
X99907Y420016D01*
X100035Y419984D01*
X100163Y419955D01*
X100292Y419931D01*
X100421Y419910D01*
X100552Y419893D01*
X100682Y419879D01*
X100813Y419870D01*
X100945Y419864D01*
X101076Y419862D01*
X105591Y419862D01*
D12*
X758698Y749300D03*
X758698Y749808D03*
X758698Y750316D03*
X758698Y750824D03*
X758698Y751332D03*
X758698Y751840D03*
X758698Y752348D03*
X758698Y752856D03*
X758698Y753364D03*
X758698Y753872D03*
X758698Y754380D03*
X758698Y754888D03*
X758698Y755396D03*
X758698Y755904D03*
X758698Y756412D03*
X758698Y756920D03*
X758698Y757428D03*
D13*
X875284Y757936D03*
D14*
X701040Y757936D03*
D13*
X875284Y758444D03*
D15*
X700786Y758444D03*
D13*
X875284Y758952D03*
D15*
X700786Y758952D03*
D13*
X875284Y759460D03*
D15*
X700786Y759460D03*
D13*
X875284Y759968D03*
D15*
X700786Y759968D03*
D13*
X875284Y760476D03*
D15*
X700786Y760476D03*
D16*
X875030Y760984D03*
D17*
X700532Y760984D03*
D16*
X875030Y761492D03*
D17*
X700532Y761492D03*
D16*
X875030Y762000D03*
D17*
X700532Y762000D03*
D16*
X875030Y762508D03*
D17*
X700532Y762508D03*
D16*
X875030Y763016D03*
D17*
X700532Y763016D03*
D16*
X875030Y763524D03*
D17*
X700532Y763524D03*
D16*
X875030Y764032D03*
D17*
X700532Y764032D03*
D16*
X875030Y764540D03*
D17*
X700532Y764540D03*
D18*
X874776Y765048D03*
D19*
X700278Y765048D03*
D18*
X874776Y765556D03*
D19*
X700278Y765556D03*
D18*
X874776Y766064D03*
D19*
X700278Y766064D03*
D18*
X874776Y766572D03*
D19*
X700278Y766572D03*
D18*
X874776Y767080D03*
D19*
X700278Y767080D03*
D18*
X874776Y767588D03*
D19*
X700278Y767588D03*
D18*
X874776Y768096D03*
D19*
X700278Y768096D03*
D18*
X874776Y768604D03*
D19*
X700278Y768604D03*
D20*
X874522Y769112D03*
D21*
X700024Y769112D03*
D20*
X874522Y769620D03*
D21*
X700024Y769620D03*
D20*
X874522Y770128D03*
D21*
X700024Y770128D03*
D20*
X874522Y770636D03*
D21*
X700024Y770636D03*
D20*
X874522Y771144D03*
D21*
X700024Y771144D03*
D20*
X874522Y771652D03*
D21*
X700024Y771652D03*
D20*
X874522Y772160D03*
D21*
X700024Y772160D03*
D22*
X874268Y772668D03*
D21*
X700024Y772668D03*
D23*
X903986Y773176D03*
D24*
X857250Y773176D03*
D25*
X827786Y773176D03*
D26*
X806196Y773176D03*
D27*
X767588Y773176D03*
D28*
X689356Y773176D03*
D29*
X613664Y773176D03*
D30*
X905256Y773684D03*
D31*
X857250Y773684D03*
D32*
X826516Y773684D03*
D33*
X807212Y773684D03*
D34*
X767842Y773684D03*
D35*
X689356Y773684D03*
D36*
X612648Y773684D03*
D37*
X905764Y774192D03*
D38*
X856996Y774192D03*
D39*
X826008Y774192D03*
D40*
X807974Y774192D03*
D41*
X784860Y774192D03*
D42*
X756412Y774192D03*
D43*
X723392Y774192D03*
D32*
X702564Y774192D03*
X681228Y774192D03*
D44*
X657860Y774192D03*
D45*
X611886Y774192D03*
D46*
X906272Y774700D03*
D47*
X856996Y774700D03*
D43*
X825500Y774700D03*
D48*
X808482Y774700D03*
D32*
X784352Y774700D03*
D49*
X756666Y774700D03*
D50*
X722884Y774700D03*
D51*
X702818Y774700D03*
X681482Y774700D03*
D25*
X658622Y774700D03*
D52*
X611378Y774700D03*
D53*
X906780Y775208D03*
D44*
X856996Y775208D03*
D50*
X824992Y775208D03*
D54*
X808736Y775208D03*
D39*
X783844Y775208D03*
D31*
X757174Y775208D03*
D26*
X722376Y775208D03*
D51*
X702818Y775208D03*
D39*
X681228Y775208D03*
D41*
X658876Y775208D03*
D55*
X610870Y775208D03*
D56*
X907288Y775716D03*
D25*
X856742Y775716D03*
D26*
X824484Y775716D03*
D57*
X809244Y775716D03*
D58*
X783590Y775716D03*
D59*
X757682Y775716D03*
D60*
X722122Y775716D03*
D51*
X702818Y775716D03*
D39*
X681228Y775716D03*
D61*
X659130Y775716D03*
D53*
X610616Y775716D03*
D62*
X907542Y776224D03*
D41*
X856996Y776224D03*
D26*
X823976Y776224D03*
D63*
X809244Y776224D03*
D64*
X783082Y776224D03*
D65*
X757682Y776224D03*
D66*
X721614Y776224D03*
D39*
X702564Y776224D03*
X681228Y776224D03*
D51*
X659638Y776224D03*
D56*
X610108Y776224D03*
D67*
X908050Y776732D03*
D51*
X856742Y776732D03*
D60*
X823722Y776732D03*
D50*
X782828Y776732D03*
D68*
X758190Y776732D03*
D33*
X721360Y776732D03*
D39*
X702564Y776732D03*
X681228Y776732D03*
X659892Y776732D03*
D62*
X609854Y776732D03*
D69*
X908304Y777240D03*
D58*
X856742Y777240D03*
D70*
X823468Y777240D03*
D50*
X782320Y777240D03*
D71*
X758444Y777240D03*
D33*
X720852Y777240D03*
D39*
X702564Y777240D03*
D51*
X680974Y777240D03*
D58*
X660146Y777240D03*
D72*
X609600Y777240D03*
D73*
X908558Y777748D03*
D64*
X856742Y777748D03*
D66*
X823214Y777748D03*
D26*
X781812Y777748D03*
D74*
X758698Y777748D03*
D75*
X720344Y777748D03*
D51*
X702310Y777748D03*
X680974Y777748D03*
D43*
X660400Y777748D03*
D67*
X609346Y777748D03*
D76*
X908812Y778256D03*
D50*
X856488Y778256D03*
D33*
X822960Y778256D03*
D60*
X781558Y778256D03*
D47*
X758952Y778256D03*
D40*
X720090Y778256D03*
D51*
X702310Y778256D03*
X680974Y778256D03*
D64*
X660654Y778256D03*
D73*
X608838Y778256D03*
D77*
X909066Y778764D03*
D26*
X856488Y778764D03*
D78*
X822706Y778764D03*
D70*
X781304Y778764D03*
D79*
X759206Y778764D03*
D80*
X719836Y778764D03*
D51*
X702310Y778764D03*
D39*
X680720Y778764D03*
D81*
X660654Y778764D03*
D73*
X608838Y778764D03*
D82*
X909320Y779272D03*
D70*
X856488Y779272D03*
D75*
X822452Y779272D03*
D70*
X781304Y779272D03*
D83*
X759460Y779272D03*
D48*
X719582Y779272D03*
D39*
X702056Y779272D03*
X680720Y779272D03*
D26*
X660908Y779272D03*
D77*
X608330Y779272D03*
D84*
X909574Y779780D03*
D66*
X856234Y779780D03*
D78*
X822198Y779780D03*
D66*
X781050Y779780D03*
D44*
X759460Y779780D03*
D48*
X719582Y779780D03*
D39*
X702056Y779780D03*
X680720Y779780D03*
D60*
X661162Y779780D03*
D77*
X608330Y779780D03*
D85*
X909828Y780288D03*
D33*
X856488Y780288D03*
D75*
X821944Y780288D03*
D33*
X780796Y780288D03*
D44*
X759460Y780288D03*
D86*
X719074Y780288D03*
D39*
X702056Y780288D03*
X680720Y780288D03*
D60*
X661162Y780288D03*
D82*
X608076Y780288D03*
D85*
X909828Y780796D03*
D78*
X856234Y780796D03*
D75*
X821944Y780796D03*
D78*
X780542Y780796D03*
D87*
X759714Y780796D03*
D86*
X719074Y780796D03*
D39*
X702056Y780796D03*
D51*
X680466Y780796D03*
D70*
X661416Y780796D03*
D84*
X607822Y780796D03*
D88*
X910082Y781304D03*
D78*
X856234Y781304D03*
D40*
X821690Y781304D03*
D78*
X780034Y781304D03*
D87*
X759714Y781304D03*
D86*
X718566Y781304D03*
D51*
X701802Y781304D03*
X680466Y781304D03*
D66*
X661670Y781304D03*
D85*
X607568Y781304D03*
D89*
X910336Y781812D03*
D40*
X856234Y781812D03*
X821690Y781812D03*
D78*
X780034Y781812D03*
D90*
X759968Y781812D03*
D57*
X718312Y781812D03*
D51*
X701802Y781812D03*
X680466Y781812D03*
D66*
X661670Y781812D03*
D88*
X607314Y781812D03*
D89*
X910336Y782320D03*
D80*
X855980Y782320D03*
X821436Y782320D03*
D75*
X779780Y782320D03*
D90*
X759968Y782320D03*
D40*
X735838Y782320D03*
D91*
X718058Y782320D03*
D51*
X701802Y782320D03*
D39*
X680212Y782320D03*
D33*
X661924Y782320D03*
D40*
X642366Y782320D03*
D88*
X607314Y782320D03*
D92*
X910590Y782828D03*
D80*
X855980Y782828D03*
D78*
X838962Y782828D03*
D80*
X821436Y782828D03*
D33*
X800100Y782828D03*
D40*
X779526Y782828D03*
D25*
X760222Y782828D03*
D60*
X736346Y782828D03*
D91*
X718058Y782828D03*
D51*
X701802Y782828D03*
D39*
X680212Y782828D03*
D78*
X661670Y782828D03*
D60*
X642366Y782828D03*
D89*
X607060Y782828D03*
D92*
X910590Y783336D03*
D66*
X875538Y783336D03*
D54*
X855980Y783336D03*
D26*
X838708Y783336D03*
D80*
X821436Y783336D03*
D81*
X799846Y783336D03*
D40*
X779526Y783336D03*
D93*
X760222Y783336D03*
D64*
X736346Y783336D03*
D57*
X718312Y783336D03*
D39*
X701548Y783336D03*
X680212Y783336D03*
D75*
X661924Y783336D03*
D64*
X642366Y783336D03*
D88*
X607314Y783336D03*
D94*
X910844Y783844D03*
D50*
X875284Y783844D03*
D54*
X855980Y783844D03*
D64*
X838962Y783844D03*
D80*
X820928Y783844D03*
D43*
X799592Y783844D03*
D80*
X779272Y783844D03*
D93*
X760222Y783844D03*
D39*
X736092Y783844D03*
D86*
X718566Y783844D03*
D39*
X701548Y783844D03*
X680212Y783844D03*
D75*
X661924Y783844D03*
D39*
X642112Y783844D03*
D85*
X607568Y783844D03*
D94*
X910844Y784352D03*
D58*
X875538Y784352D03*
D54*
X855980Y784352D03*
D43*
X838708Y784352D03*
D80*
X820928Y784352D03*
D51*
X799338Y784352D03*
D80*
X779272Y784352D03*
D93*
X760222Y784352D03*
D32*
X736092Y784352D03*
D54*
X718820Y784352D03*
D39*
X701548Y784352D03*
X680212Y784352D03*
D75*
X661924Y784352D03*
D32*
X642112Y784352D03*
D84*
X607822Y784352D03*
D94*
X910844Y784860D03*
D32*
X875284Y784860D03*
D86*
X855726Y784860D03*
D39*
X838708Y784860D03*
D80*
X820928Y784860D03*
D61*
X799338Y784860D03*
D80*
X779272Y784860D03*
D41*
X760476Y784860D03*
X736092Y784860D03*
D40*
X719074Y784860D03*
D51*
X701294Y784860D03*
X679958Y784860D03*
D40*
X662178Y784860D03*
D41*
X642112Y784860D03*
D77*
X608330Y784860D03*
D95*
X911098Y785368D03*
D41*
X875284Y785368D03*
D86*
X855726Y785368D03*
D39*
X838708Y785368D03*
D48*
X820674Y785368D03*
D93*
X799338Y785368D03*
D80*
X778764Y785368D03*
D41*
X760476Y785368D03*
D25*
X735838Y785368D03*
D75*
X719328Y785368D03*
D51*
X701294Y785368D03*
X679958Y785368D03*
D40*
X662178Y785368D03*
D96*
X642112Y785368D03*
D76*
X608584Y785368D03*
D95*
X911098Y785876D03*
D96*
X875284Y785876D03*
D86*
X855726Y785876D03*
D51*
X838454Y785876D03*
D48*
X820674Y785876D03*
D25*
X799338Y785876D03*
D80*
X778764Y785876D03*
D41*
X760476Y785876D03*
D90*
X735584Y785876D03*
D78*
X719582Y785876D03*
D51*
X701294Y785876D03*
D39*
X679704Y785876D03*
D40*
X662178Y785876D03*
D25*
X641858Y785876D03*
D73*
X608838Y785876D03*
D97*
X911352Y786384D03*
D25*
X875538Y786384D03*
D57*
X855472Y786384D03*
D51*
X838454Y786384D03*
D48*
X820674Y786384D03*
D87*
X799338Y786384D03*
D48*
X778510Y786384D03*
D41*
X760476Y786384D03*
D87*
X735838Y786384D03*
D33*
X719836Y786384D03*
D51*
X701294Y786384D03*
D39*
X679704Y786384D03*
D48*
X662178Y786384D03*
D87*
X641858Y786384D03*
D69*
X609092Y786384D03*
D97*
X911352Y786892D03*
D87*
X875538Y786892D03*
D57*
X855472Y786892D03*
D51*
X838454Y786892D03*
D48*
X820674Y786892D03*
D44*
X799084Y786892D03*
D48*
X778510Y786892D03*
D61*
X760730Y786892D03*
D44*
X735584Y786892D03*
D66*
X720090Y786892D03*
D39*
X701040Y786892D03*
X679704Y786892D03*
D48*
X662178Y786892D03*
D44*
X641604Y786892D03*
D72*
X609600Y786892D03*
D95*
X911098Y787400D03*
D98*
X875538Y787400D03*
D57*
X855472Y787400D03*
D32*
X838200Y787400D03*
D80*
X820420Y787400D03*
D44*
X799084Y787400D03*
D48*
X778510Y787400D03*
D32*
X760476Y787400D03*
D83*
X735584Y787400D03*
D60*
X720598Y787400D03*
D39*
X701040Y787400D03*
X679704Y787400D03*
D48*
X662178Y787400D03*
D83*
X641604Y787400D03*
D62*
X609854Y787400D03*
D94*
X910844Y787908D03*
D98*
X875538Y787908D03*
D57*
X855472Y787908D03*
D32*
X838200Y787908D03*
D48*
X820166Y787908D03*
D83*
X799084Y787908D03*
D54*
X778256Y787908D03*
D32*
X760476Y787908D03*
D79*
X735330Y787908D03*
D26*
X720852Y787908D03*
D39*
X701040Y787908D03*
X679704Y787908D03*
D48*
X662178Y787908D03*
D79*
X641350Y787908D03*
D56*
X610108Y787908D03*
D89*
X910336Y788416D03*
D83*
X875792Y788416D03*
D86*
X855218Y788416D03*
D32*
X838200Y788416D03*
D48*
X820166Y788416D03*
D83*
X799084Y788416D03*
D54*
X778256Y788416D03*
D32*
X760476Y788416D03*
D47*
X735076Y788416D03*
D81*
X721106Y788416D03*
D39*
X701040Y788416D03*
D51*
X679450Y788416D03*
D48*
X662178Y788416D03*
D47*
X641096Y788416D03*
D99*
X610362Y788416D03*
D88*
X910082Y788924D03*
D83*
X875792Y788924D03*
D86*
X855218Y788924D03*
D32*
X838200Y788924D03*
D48*
X820166Y788924D03*
D79*
X798830Y788924D03*
D54*
X778256Y788924D03*
D32*
X760476Y788924D03*
D100*
X730250Y788924D03*
D51*
X700786Y788924D03*
X679450Y788924D03*
D48*
X662178Y788924D03*
D101*
X620014Y788924D03*
D85*
X909828Y789432D03*
D79*
X876046Y789432D03*
D86*
X855218Y789432D03*
D61*
X837946Y789432D03*
D48*
X820166Y789432D03*
D79*
X798830Y789432D03*
D48*
X778002Y789432D03*
D32*
X760476Y789432D03*
D100*
X730250Y789432D03*
D51*
X700786Y789432D03*
X679450Y789432D03*
D48*
X662178Y789432D03*
D101*
X620014Y789432D03*
D84*
X909574Y789940D03*
D47*
X875792Y789940D03*
D86*
X855218Y789940D03*
D61*
X837946Y789940D03*
D48*
X820166Y789940D03*
D47*
X799084Y789940D03*
D48*
X778002Y789940D03*
D32*
X760476Y789940D03*
D91*
X717042Y789940D03*
D51*
X700786Y789940D03*
D39*
X679196Y789940D03*
D86*
X662178Y789940D03*
D94*
X606552Y789940D03*
D82*
X909320Y790448D03*
D74*
X876046Y790448D03*
D86*
X855218Y790448D03*
D32*
X837692Y790448D03*
D54*
X819912Y790448D03*
D74*
X798830Y790448D03*
D54*
X777748Y790448D03*
D32*
X760476Y790448D03*
D63*
X716788Y790448D03*
D51*
X700786Y790448D03*
D39*
X679196Y790448D03*
D86*
X662178Y790448D03*
D95*
X606298Y790448D03*
D77*
X909066Y790956D03*
D74*
X876046Y790956D03*
D86*
X855218Y790956D03*
D32*
X837692Y790956D03*
D54*
X819912Y790956D03*
D74*
X798830Y790956D03*
D54*
X777748Y790956D03*
D32*
X760476Y790956D03*
D63*
X716788Y790956D03*
D39*
X700532Y790956D03*
X679196Y790956D03*
D86*
X662178Y790956D03*
D95*
X606298Y790956D03*
D73*
X908558Y791464D03*
D71*
X876300Y791464D03*
D86*
X855218Y791464D03*
D32*
X837692Y791464D03*
D48*
X819658Y791464D03*
D74*
X798830Y791464D03*
D54*
X777748Y791464D03*
D39*
X760476Y791464D03*
D63*
X716788Y791464D03*
D39*
X700532Y791464D03*
X679196Y791464D03*
D86*
X662178Y791464D03*
D95*
X606298Y791464D03*
D69*
X908304Y791972D03*
D71*
X876300Y791972D03*
D86*
X855218Y791972D03*
D61*
X837438Y791972D03*
D48*
X819658Y791972D03*
D74*
X798830Y791972D03*
D54*
X777748Y791972D03*
D39*
X760476Y791972D03*
D63*
X716788Y791972D03*
D39*
X700532Y791972D03*
D51*
X678942Y791972D03*
D86*
X662178Y791972D03*
D95*
X606298Y791972D03*
D67*
X908050Y792480D03*
D71*
X876808Y792480D03*
D54*
X854964Y792480D03*
D61*
X837438Y792480D03*
D48*
X819658Y792480D03*
D74*
X798830Y792480D03*
D54*
X777748Y792480D03*
D51*
X760222Y792480D03*
D63*
X716788Y792480D03*
D39*
X700532Y792480D03*
D51*
X678942Y792480D03*
D86*
X662178Y792480D03*
D95*
X606298Y792480D03*
D72*
X907796Y792988D03*
D71*
X876808Y792988D03*
D54*
X854964Y792988D03*
D61*
X837438Y792988D03*
D48*
X819658Y792988D03*
D71*
X798576Y792988D03*
D48*
X777494Y792988D03*
D51*
X760222Y792988D03*
D91*
X716534Y792988D03*
D51*
X700278Y792988D03*
X678942Y792988D03*
D86*
X662178Y792988D03*
D95*
X606298Y792988D03*
D102*
X897636Y793496D03*
D54*
X854964Y793496D03*
D61*
X837438Y793496D03*
D48*
X819658Y793496D03*
D74*
X798322Y793496D03*
D48*
X777494Y793496D03*
D51*
X760222Y793496D03*
D91*
X716534Y793496D03*
D51*
X700278Y793496D03*
D39*
X678688Y793496D03*
D86*
X661670Y793496D03*
D95*
X606298Y793496D03*
D103*
X897890Y794004D03*
D54*
X854964Y794004D03*
D61*
X837438Y794004D03*
D48*
X819658Y794004D03*
D74*
X798322Y794004D03*
D48*
X777494Y794004D03*
D51*
X760222Y794004D03*
D91*
X716534Y794004D03*
D51*
X700278Y794004D03*
D39*
X678688Y794004D03*
D86*
X661670Y794004D03*
D95*
X606298Y794004D03*
D103*
X897890Y794512D03*
D54*
X854964Y794512D03*
D32*
X837184Y794512D03*
D54*
X819404Y794512D03*
D74*
X798322Y794512D03*
D48*
X777494Y794512D03*
D51*
X760222Y794512D03*
D91*
X716534Y794512D03*
D39*
X700024Y794512D03*
X678688Y794512D03*
D86*
X661670Y794512D03*
D95*
X606298Y794512D03*
D104*
X898144Y795020D03*
D54*
X854964Y795020D03*
D32*
X837184Y795020D03*
D54*
X819404Y795020D03*
D74*
X798322Y795020D03*
D48*
X777494Y795020D03*
D39*
X759968Y795020D03*
D91*
X716534Y795020D03*
D39*
X700024Y795020D03*
X678688Y795020D03*
D86*
X661670Y795020D03*
D95*
X606298Y795020D03*
D105*
X898398Y795528D03*
D48*
X854710Y795528D03*
D61*
X836930Y795528D03*
D48*
X819150Y795528D03*
D47*
X798576Y795528D03*
D48*
X777494Y795528D03*
D39*
X759968Y795528D03*
D91*
X716534Y795528D03*
D39*
X700024Y795528D03*
D51*
X678434Y795528D03*
D86*
X661670Y795528D03*
D95*
X606298Y795528D03*
D106*
X898906Y796036D03*
D80*
X854964Y796036D03*
D61*
X836930Y796036D03*
D48*
X819150Y796036D03*
D79*
X798322Y796036D03*
D48*
X777494Y796036D03*
D39*
X759968Y796036D03*
D57*
X716280Y796036D03*
D39*
X700024Y796036D03*
D51*
X678434Y796036D03*
D86*
X661670Y796036D03*
D95*
X606298Y796036D03*
D107*
X899160Y796544D03*
D80*
X854964Y796544D03*
D61*
X836930Y796544D03*
D48*
X819150Y796544D03*
D79*
X798322Y796544D03*
D80*
X777240Y796544D03*
D39*
X759968Y796544D03*
D57*
X716280Y796544D03*
D39*
X700024Y796544D03*
X678180Y796544D03*
D86*
X661670Y796544D03*
D95*
X606298Y796544D03*
D108*
X899668Y797052D03*
D80*
X854964Y797052D03*
D61*
X836930Y797052D03*
D48*
X819150Y797052D03*
D79*
X798322Y797052D03*
D80*
X777240Y797052D03*
D39*
X759460Y797052D03*
D57*
X716280Y797052D03*
D39*
X699516Y797052D03*
X678180Y797052D03*
D57*
X661416Y797052D03*
D95*
X606298Y797052D03*
D109*
X899922Y797560D03*
D40*
X855218Y797560D03*
D32*
X836676Y797560D03*
D48*
X819150Y797560D03*
D83*
X798068Y797560D03*
D80*
X777240Y797560D03*
D39*
X759460Y797560D03*
D57*
X716280Y797560D03*
D39*
X699516Y797560D03*
X678180Y797560D03*
D86*
X661162Y797560D03*
D95*
X606298Y797560D03*
D110*
X900430Y798068D03*
D40*
X855218Y798068D03*
D32*
X836676Y798068D03*
D54*
X818896Y798068D03*
D98*
X798322Y798068D03*
D80*
X777240Y798068D03*
D39*
X759460Y798068D03*
D57*
X716280Y798068D03*
D39*
X699516Y798068D03*
X678180Y798068D03*
D86*
X661162Y798068D03*
D95*
X606298Y798068D03*
D111*
X900938Y798576D03*
D40*
X855218Y798576D03*
D32*
X836676Y798576D03*
D54*
X818896Y798576D03*
D44*
X798068Y798576D03*
D40*
X777494Y798576D03*
D58*
X759206Y798576D03*
D57*
X716280Y798576D03*
D58*
X699262Y798576D03*
X677926Y798576D03*
D86*
X661162Y798576D03*
D95*
X606298Y798576D03*
D112*
X901192Y799084D03*
D75*
X855472Y799084D03*
D61*
X836422Y799084D03*
D54*
X818896Y799084D03*
D87*
X798322Y799084D03*
D40*
X777494Y799084D03*
D39*
X758952Y799084D03*
D57*
X716280Y799084D03*
D58*
X699262Y799084D03*
X677926Y799084D03*
D86*
X661162Y799084D03*
D95*
X606298Y799084D03*
D113*
X901954Y799592D03*
D33*
X855472Y799592D03*
D61*
X836422Y799592D03*
D48*
X818642Y799592D03*
D90*
X798068Y799592D03*
D40*
X777494Y799592D03*
D58*
X758698Y799592D03*
D87*
X734822Y799592D03*
D86*
X716026Y799592D03*
D58*
X699262Y799592D03*
D43*
X677672Y799592D03*
D54*
X660908Y799592D03*
D87*
X641350Y799592D03*
D94*
X606552Y799592D03*
D114*
X902208Y800100D03*
D33*
X855472Y800100D03*
D61*
X836422Y800100D03*
D48*
X818642Y800100D03*
D96*
X798068Y800100D03*
D75*
X777240Y800100D03*
D58*
X758698Y800100D03*
D90*
X735076Y800100D03*
D54*
X716280Y800100D03*
D43*
X699008Y800100D03*
X677672Y800100D03*
D54*
X660908Y800100D03*
D90*
X641096Y800100D03*
D94*
X606552Y800100D03*
D115*
X902716Y800608D03*
D66*
X855726Y800608D03*
D61*
X836422Y800608D03*
D48*
X818642Y800608D03*
D41*
X798068Y800608D03*
D78*
X777494Y800608D03*
D58*
X758190Y800608D03*
D25*
X734822Y800608D03*
D54*
X716280Y800608D03*
D64*
X698754Y800608D03*
X677418Y800608D03*
D48*
X660654Y800608D03*
D25*
X640842Y800608D03*
D94*
X606552Y800608D03*
D116*
X903224Y801116D03*
D66*
X855726Y801116D03*
D61*
X836422Y801116D03*
D54*
X818388Y801116D03*
D32*
X798068Y801116D03*
D78*
X777494Y801116D03*
D43*
X757936Y801116D03*
D93*
X734822Y801116D03*
D54*
X716280Y801116D03*
D64*
X698754Y801116D03*
X677418Y801116D03*
D48*
X660654Y801116D03*
D93*
X640842Y801116D03*
D94*
X606552Y801116D03*
D117*
X903478Y801624D03*
D70*
X855980Y801624D03*
D32*
X836168Y801624D03*
D54*
X818388Y801624D03*
D39*
X798068Y801624D03*
D78*
X777494Y801624D03*
D81*
X758190Y801624D03*
D41*
X734568Y801624D03*
D54*
X716280Y801624D03*
D50*
X698500Y801624D03*
X677164Y801624D03*
D80*
X660400Y801624D03*
D41*
X640588Y801624D03*
D94*
X606552Y801624D03*
D23*
X903986Y802132D03*
D60*
X856234Y802132D03*
D32*
X836168Y802132D03*
D54*
X818388Y802132D03*
D43*
X798068Y802132D03*
D33*
X777748Y802132D03*
D60*
X758698Y802132D03*
D32*
X734568Y802132D03*
D48*
X716534Y802132D03*
D26*
X698500Y802132D03*
D81*
X676910Y802132D03*
D80*
X660400Y802132D03*
D32*
X640588Y802132D03*
D92*
X606806Y802132D03*
D118*
X904240Y802640D03*
D26*
X856488Y802640D03*
D32*
X836168Y802640D03*
D54*
X818388Y802640D03*
D26*
X798068Y802640D03*
D33*
X777748Y802640D03*
D78*
X758698Y802640D03*
D63*
X752348Y802640D03*
D39*
X734568Y802640D03*
D48*
X716534Y802640D03*
D60*
X698246Y802640D03*
X676910Y802640D03*
D40*
X660146Y802640D03*
D39*
X640588Y802640D03*
D92*
X606806Y802640D03*
D119*
X904494Y803148D03*
D81*
X856742Y803148D03*
D61*
X835914Y803148D03*
D48*
X818134Y803148D03*
D75*
X798068Y803148D03*
D33*
X777748Y803148D03*
D86*
X758698Y803148D03*
D63*
X752348Y803148D03*
D64*
X734314Y803148D03*
D80*
X716280Y803148D03*
D66*
X698246Y803148D03*
X676910Y803148D03*
D40*
X660146Y803148D03*
D50*
X640588Y803148D03*
D92*
X606806Y803148D03*
D120*
X905002Y803656D03*
D64*
X856742Y803656D03*
D61*
X835914Y803656D03*
D48*
X818134Y803656D03*
D70*
X777748Y803656D03*
D91*
X752094Y803656D03*
D70*
X734568Y803656D03*
D40*
X716534Y803656D03*
X698246Y803656D03*
D80*
X676656Y803656D03*
D75*
X659892Y803656D03*
D66*
X640334Y803656D03*
D89*
X607060Y803656D03*
D30*
X905256Y804164D03*
D58*
X857250Y804164D03*
D61*
X835914Y804164D03*
D48*
X818134Y804164D03*
D70*
X777748Y804164D03*
D63*
X751840Y804164D03*
D40*
X716534Y804164D03*
D75*
X659892Y804164D03*
D89*
X607060Y804164D03*
D45*
X905510Y804672D03*
D39*
X857504Y804672D03*
D61*
X835914Y804672D03*
D48*
X818134Y804672D03*
D60*
X778002Y804672D03*
D91*
X751586Y804672D03*
D75*
X716788Y804672D03*
D78*
X659638Y804672D03*
D88*
X607314Y804672D03*
D37*
X905764Y805180D03*
D51*
X857758Y805180D03*
D32*
X835660Y805180D03*
D54*
X817880Y805180D03*
D60*
X778002Y805180D03*
D57*
X751332Y805180D03*
D75*
X716788Y805180D03*
D66*
X659638Y805180D03*
D88*
X607314Y805180D03*
D52*
X906018Y805688D03*
D32*
X858012Y805688D03*
X835660Y805688D03*
D54*
X817880Y805688D03*
D26*
X778256Y805688D03*
D86*
X751078Y805688D03*
D78*
X717042Y805688D03*
D66*
X659638Y805688D03*
D85*
X607568Y805688D03*
D46*
X906272Y806196D03*
D41*
X858520Y806196D03*
D32*
X835660Y806196D03*
D48*
X817626Y806196D03*
D26*
X778256Y806196D03*
D57*
X750824Y806196D03*
D78*
X717042Y806196D03*
D70*
X659384Y806196D03*
D85*
X607568Y806196D03*
D55*
X906526Y806704D03*
D96*
X859028Y806704D03*
D32*
X835660Y806704D03*
D48*
X817626Y806704D03*
D81*
X778510Y806704D03*
D86*
X750570Y806704D03*
D66*
X717042Y806704D03*
D26*
X659384Y806704D03*
D84*
X607822Y806704D03*
D53*
X906780Y807212D03*
D25*
X859282Y807212D03*
D61*
X835406Y807212D03*
D48*
X817626Y807212D03*
D50*
X778764Y807212D03*
D54*
X750316Y807212D03*
D70*
X717296Y807212D03*
D81*
X659130Y807212D03*
D82*
X608076Y807212D03*
D53*
X906780Y807720D03*
D98*
X859790Y807720D03*
D61*
X835406Y807720D03*
D48*
X817626Y807720D03*
D43*
X778764Y807720D03*
D48*
X750062Y807720D03*
D60*
X717550Y807720D03*
D64*
X659130Y807720D03*
D77*
X608330Y807720D03*
D99*
X907034Y808228D03*
D83*
X860044Y808228D03*
D61*
X835406Y808228D03*
D48*
X817626Y808228D03*
D58*
X779018Y808228D03*
D80*
X749808Y808228D03*
D60*
X717550Y808228D03*
D43*
X658876Y808228D03*
D77*
X608330Y808228D03*
D99*
X907034Y808736D03*
D47*
X860552Y808736D03*
D32*
X835152Y808736D03*
D54*
X817372Y808736D03*
D39*
X779272Y808736D03*
D80*
X749300Y808736D03*
D26*
X717804Y808736D03*
D39*
X658876Y808736D03*
D76*
X608584Y808736D03*
D56*
X907288Y809244D03*
D71*
X861060Y809244D03*
D32*
X835152Y809244D03*
D54*
X817372Y809244D03*
D51*
X779526Y809244D03*
D75*
X748792Y809244D03*
D81*
X718058Y809244D03*
D91*
X685038Y809244D03*
D32*
X658876Y809244D03*
D73*
X608838Y809244D03*
D56*
X907288Y809752D03*
D38*
X861568Y809752D03*
D32*
X835152Y809752D03*
D54*
X817372Y809752D03*
D32*
X779780Y809752D03*
D78*
X748538Y809752D03*
D64*
X718566Y809752D03*
D86*
X685038Y809752D03*
D93*
X658622Y809752D03*
D67*
X609346Y809752D03*
D62*
X907542Y810260D03*
D65*
X861822Y810260D03*
D32*
X835152Y810260D03*
D48*
X817118Y810260D03*
D61*
X780034Y810260D03*
D33*
X748284Y810260D03*
D43*
X718820Y810260D03*
D48*
X685038Y810260D03*
D96*
X658368Y810260D03*
D72*
X609600Y810260D03*
D62*
X907542Y810768D03*
D59*
X862330Y810768D03*
D32*
X835152Y810768D03*
D48*
X817118Y810768D03*
D93*
X780542Y810768D03*
D66*
X747522Y810768D03*
D39*
X718820Y810768D03*
D75*
X684784Y810768D03*
D44*
X658368Y810768D03*
D62*
X609854Y810768D03*
X907542Y811276D03*
D121*
X862584Y811276D03*
D61*
X834898Y811276D03*
D48*
X817118Y811276D03*
D63*
X804672Y811276D03*
D96*
X780796Y811276D03*
D60*
X747014Y811276D03*
D32*
X719328Y811276D03*
D63*
X703072Y811276D03*
D66*
X685038Y811276D03*
D79*
X658114Y811276D03*
D99*
X610362Y811276D03*
D72*
X907796Y811784D03*
D122*
X862584Y811784D03*
D61*
X834898Y811784D03*
D48*
X817118Y811784D03*
D86*
X804418Y811784D03*
D87*
X781050Y811784D03*
D63*
X762508Y811784D03*
D64*
X746506Y811784D03*
D41*
X719836Y811784D03*
D57*
X702564Y811784D03*
D26*
X684784Y811784D03*
D68*
X658114Y811784D03*
D55*
X610870Y811784D03*
D72*
X907796Y812292D03*
D123*
X838200Y812292D03*
D124*
X775462Y812292D03*
D51*
X746506Y812292D03*
D125*
X714248Y812292D03*
D58*
X684530Y812292D03*
D121*
X657860Y812292D03*
D37*
X611632Y812292D03*
D72*
X907796Y812800D03*
D126*
X837692Y812800D03*
D127*
X775716Y812800D03*
D96*
X746252Y812800D03*
D128*
X714248Y812800D03*
D93*
X684530Y812800D03*
D129*
X657606Y812800D03*
D120*
X612394Y812800D03*
D72*
X907796Y813308D03*
D130*
X836676Y813308D03*
D82*
X775716Y813308D03*
D68*
X745998Y813308D03*
D89*
X714248Y813308D03*
D47*
X684276Y813308D03*
D131*
X657606Y813308D03*
D91*
X640842Y813308D03*
D117*
X613918Y813308D03*
D72*
X907796Y813816D03*
D132*
X732790Y813816D03*
D67*
X908050Y814324D03*
D132*
X732790Y814324D03*
D67*
X908050Y814832D03*
D133*
X733044Y814832D03*
D67*
X908050Y815340D03*
D133*
X733044Y815340D03*
D67*
X908050Y815848D03*
D83*
X868680Y815848D03*
D134*
X724662Y815848D03*
D67*
X908050Y816356D03*
D98*
X868934Y816356D03*
D135*
X724408Y816356D03*
D67*
X908050Y816864D03*
D98*
X868934Y816864D03*
D136*
X724154Y816864D03*
D72*
X907796Y817372D03*
D44*
X869188Y817372D03*
D137*
X723900Y817372D03*
D72*
X907796Y817880D03*
D44*
X869188Y817880D03*
D138*
X723392Y817880D03*
D72*
X907796Y818388D03*
D90*
X869188Y818388D03*
D139*
X723138Y818388D03*
D72*
X907796Y818896D03*
D25*
X869442Y818896D03*
D140*
X722884Y818896D03*
D72*
X907796Y819404D03*
D25*
X869442Y819404D03*
D141*
X722630Y819404D03*
D72*
X907796Y819912D03*
D93*
X869442Y819912D03*
D142*
X722376Y819912D03*
D72*
X907796Y820420D03*
D41*
X869696Y820420D03*
D143*
X721868Y820420D03*
D62*
X907542Y820928D03*
D32*
X869696Y820928D03*
D144*
X721614Y820928D03*
D62*
X907542Y821436D03*
D51*
X869442Y821436D03*
D145*
X721360Y821436D03*
D62*
X907542Y821944D03*
D43*
X869696Y821944D03*
D146*
X721106Y821944D03*
D56*
X907288Y822452D03*
D81*
X869442Y822452D03*
D147*
X720852Y822452D03*
D56*
X907288Y822960D03*
D33*
X869696Y822960D03*
D147*
X720852Y822960D03*
D99*
X907034Y823468D03*
D91*
X869442Y823468D03*
D146*
X721106Y823468D03*
D99*
X907034Y823976D03*
D146*
X721106Y823976D03*
D53*
X906780Y824484D03*
D145*
X721360Y824484D03*
D53*
X906780Y824992D03*
D144*
X721614Y824992D03*
D55*
X906526Y825500D03*
D144*
X721614Y825500D03*
D55*
X906526Y826008D03*
D143*
X721868Y826008D03*
D46*
X906272Y826516D03*
D148*
X722122Y826516D03*
D52*
X906018Y827024D03*
D142*
X722376Y827024D03*
D37*
X905764Y827532D03*
D142*
X722376Y827532D03*
D45*
X905510Y828040D03*
D141*
X722630Y828040D03*
D30*
X905256Y828548D03*
D140*
X722884Y828548D03*
D120*
X905002Y829056D03*
D138*
X723392Y829056D03*
D36*
X904748Y829564D03*
D149*
X723646Y829564D03*
D119*
X904494Y830072D03*
D137*
X723900Y830072D03*
D23*
X903986Y830580D03*
D135*
X724408Y830580D03*
D29*
X903732Y831088D03*
D134*
X724662Y831088D03*
D116*
X903224Y831596D03*
D150*
X725170Y831596D03*
D115*
X902716Y832104D03*
D151*
X725678Y832104D03*
D113*
X901954Y832612D03*
D152*
X726186Y832612D03*
D111*
X900938Y833120D03*
D153*
X727456Y833120D03*
D12*
X758698Y833628D03*
X758698Y834136D03*
X758698Y834644D03*
X758698Y835152D03*
X758698Y835660D03*
X758698Y836168D03*
X758698Y836676D03*
X758698Y837184D03*
X758698Y837692D03*
X758698Y838200D03*
X758698Y838708D03*
X758698Y839216D03*
X758698Y839724D03*
X758698Y840232D03*
X758698Y840740D03*
X758698Y841248D03*
X758698Y841756D03*
D63*
X925068Y842264D03*
D154*
X924000Y97500D02*
X940000Y97500D01*
X924000Y97500D02*
X924000Y85500D01*
X924000Y41500D02*
X924000Y29500D01*
X940000Y29500D01*
X967000Y29500D02*
X967000Y97500D01*
X938000Y85500D02*
X924000Y85500D01*
X938000Y85500D02*
X938000Y41500D01*
X924000Y41500D01*
X387350Y393700D02*
X381000Y400050D01*
X400050Y393700D02*
X406400Y400050D01*
X381000Y400050D02*
X381000Y463550D01*
X406400Y463550D02*
X406400Y400050D01*
X400050Y469900D02*
X387350Y469900D01*
X381000Y463550D01*
X400050Y469900D02*
X406400Y463550D01*
X400050Y393700D02*
X387350Y393700D01*
M02*
